<?xml version="1.0" encoding="utf-8"?>
<!-- Generator: Adobe Illustrator 22.1.0, SVG Export Plug-In . SVG Version: 6.00 Build 0)  -->
<svg version="1.1" id="Capa_1" xmlns="http://www.w3.org/2000/svg" xmlns:xlink="http://www.w3.org/1999/xlink" x="0px" y="0px"
	 viewBox="0 0 1280 613" style="enable-background:new 0 0 1280 613;" xml:space="preserve">
<g transform="translate(0.000000,613.000000) scale(0.100000,-0.100000)">
	<path d="M1829,6128c0-2-4-86-8-187c-7-156-11-186-25-197c-9-6-54-15-99-19s-86-11-92-15c-9-8-116-21-195-25c-44-2-107-33-113-55
		c-3-12-24-21-73-31c-38-7-75-12-81-11c-7,2-22-2-33-8c-18-10-20-21-20-115c0-63,4-105,10-105s10-7,10-16c0-8-4-13-9-10s-5-13,1-37
		c5-23,7-60,3-82c-11-68-13-95-20-259c-3-88-8-163-11-168s-5-58-5-119c0-74-3-108-10-103c-7,4-7,0,0-14c13-25,14-65,2-78
		c-5-5-11-22-13-38c-2-23-10-31-32-37c-17-5-35-5-40,0c-6,5-18,8-26,9c-8,0-37,5-65,11c-27,7-59,14-70,16c-26,6-25,6-335,65
		c-308,59-310,58-310-22c0-27-5-48-10-48c-6,0-10-6-8-12c3-14-18-92-33-120c-5-10-9-26-9-37s-4-21-9-23c-10-3,5-102,20-130
		c5-10,9-24,9-32s9-18,20-21s20-12,20-20c0-7,7-15,15-19c8-3,15-12,15-20c0-7,7-17,15-20c13-4,14-10,5-26c-6-11-15-18-21-15
		c-5,4-9-5-9-19c0-30-3-31-33-11c-21,13-25,12-49-10c-15-14-33-22-41-19c-10,4-15-1-14-13s-6-19-21-21c-12-2-20-7-17-12s1-11-5-15
		s-10-51-10-111c0-83,3-106,15-110c11-5,12-11,4-25c-8-15-5-24,15-43c26-23,26-39,0-29c-19,7-18-6,6-49c17-32,17-37,3-42
		c-11-5-12-10-5-19c6-6,12-28,14-47c2-24,10-38,25-46c25-12,20-24-9-24c-24,0-23-6,8-43c16-18,24-38,20-50c-4-16,0-18,20-14
		c26,5,33-10,9-19c-20-8-19-53,1-61c11-4,13-13,8-36c-6-28-5-29,20-23c15,4,26,2,26-4c0-5-6-10-13-10c-31,0-36-22-11-49
		c14-15,22-33,18-43c-2-9,11-48,30-87c32-62,41-101,87-368c28-164,56-331,61-370c8-49,15-73,25-73c16,0,17-17,1-22c-9-3-9-15-1-49
		c6-24,17-82,23-129s14-92,18-100c3-8,6-24,7-35c5-74,17-115,33-116c11,0,12-3,5-6c-17-6-17-60-1-70c7-4,13-26,14-48
		c2-74,9-100,25-97c12,1,15-5,11-28c-2-16-8-27-13-24s-9,1-9-5s9-15,21-21c16-9,18-14,8-26c-9-11-7-14,14-14c28,0,44-15,27-25
		c-5-3-10-15-10-26c0-12-4-17-11-13s-10,1-7-7s11-14,19-14s14-7,15-15c3-51,4-51,25-45c19,6,21,4,15-19c-5-20-2-28,11-34
		c20-8,25-61,8-75c-6-5-2-6,8-3c13,4,20,0,24-14c3-11,12-20,20-20c9,0,13-6,9-15c-8-21,3-45,20-45c8,0,14-5,14-11s-7-9-15-5
		c-8,3-15,1-15-4c0-6,5-10,10-10c6,0,10-9,10-20c0-10,8-23,17-29c10-5,14-13,9-18c-5-4-11-2-13,5c-9,24-19,3-15-31c3-24,11-39,27-47
		c13-7,23-16,22-19c-1-4,15-22,36-40c20-18,37-39,37-47s7-17,15-20c10-4,12-15,8-34c-6-32,26-112,42-106c15,5,16-84,2-112
		c-8-17-8-31,0-52c6-17,7-32,1-38c-5-5-3-14,7-22c12-10,18-10,30,0c20,17,19,1-2-22c-16-18-15-21,19-54c35-36,36-36,62-19
		c23,16,26,16,26,1c0-21,43-21,60-1c17,21,30,19,30-5c0-11,7-20,16-20c21,0,84,49,84,66c0,7,5,16,12,20c8,5,9,2,5-9
		c-9-24,10-21,36,5c18,19,27,21,45,13c12-5,22-16,22-23s11-18,25-24s25-17,25-24s9-16,20-19c13-4,20-15,20-31c0-27,3-28,31-14
		c10,6,19,21,20,33c0,12,3,17,5,10c3-7,12-9,20-6c9,3,14-2,14-16c0-13-5-19-14-15c-20,8-30-14-16-31c11-13,568-15,4375-15
		c4286,0,4362,0,4379,19c14,15,15,24,6,40c-6,12-20,21-30,21c-21,0-27,24-10,35c6,3,10,15,10,26c0,23,13,25,30,4c9-11,16-12,31-2
		c15,9,23,9,39,0c19-13,37-2,26,16c-3,5,1,14,9,21c12,10,16,9,21-4s14-15,34-11c16,3,31,2,34-3s32-9,65-9s67-5,75-12
		c15-13,32,1,21,18c-9,16,17,25,29,10c7-9,32-16,65-17c30-1,60-7,67-13s23-8,35-4c13,4,24,2,29-5c10-17,30-3,30,21c0,10,7,19,15,19
		c9,0,14-8,12-22c-3-29,28-37,36-8c7,26,27,26,27,0c0-13,7-20,20-20c11,0,20,5,20,11c0,8,5,8,15-1c8-7,25-10,39-6c14,3,27,2,30-2
		c3-5,27-9,55-10c43-1,50,2,53,20c5,32,28,35,28,4c0-27,6-31,28-17c23,14,9,53-26,73c-19,10-41,17-50,16c-13-2-17,5-17,32
		c0,28-4,36-22,38c-12,2-27,10-33,17c-9,11-17,12-32,4c-14-7-23-7-34,1c-7,7-23,10-34,7c-10-3-24,1-30,8c-16,20-40,7-40-21
		c0-17-4-22-16-17c-8,3-13,12-10,20c11,27-6,36-24,13c-12-16-21-20-31-14c-8,5-36,14-62,19c-50,10-61,30-17,30c16,0,28,8,35,23
		c12,27,35,29,35,2c0-22,16-27,22-8c2,6,22,12,44,12c35,1,39,4,36,24c-1,15,2,22,10,19c7-2,12-14,10-25c-4-26,19-30,38-7
		c8,9,17,12,24,6c6-4,32-9,57-9c39,0,48,4,62,26c17,27,17,27,23,5c6-20,8-21,29-7c20,13,24,13,35-1c8-10,17-12,29-5c10,5,23,5,32-1
		c22-14,28-11,41,16c12,28,28,33,28,10c0-18,21-20,38-3c9,9,15,9,24,0c7-7,33-12,59-12c39,0,48,3,52,21c8,29,25,15,19-16
		c-6-32,11-32,37,1c18,23,22,24,27,9c5-11,14-15,29-11c14,4,28,0,35-9c10-12,16-13,27-4c10,9,19,9,36,1c12-6,40-13,62-14
		c35-3,40,0,43,19c4,29,20,30,24,1c4-25,28-37,28-14c0,20,23,21,39,2c7-9,29-13,61-11c28,1,50-2,50-6c0-5,23-9,51-9c40,0,55,5,70,22
		l18,23l1-22c0-25,10-29,28-11c8,8,18,9,34,1c13-6,45-11,73-12c27-1,55-6,61-12c8-7,18-1,32,18l21,28l11-30c9-23,13-26,20-15
		c5,8,24,15,42,15c24,0,34,5,36,19c6,30,23,42,54,38c22-3,30,1,37,19c10,24,10,24,10,2c1-33,22-39,43-13c18,22,19,22,32,5
		c9-13,20-16,44-10l32,7v758c0,661-2,759-15,770c-8,7-15,18-15,25s-21,15-52,19c-29,4-66,13-83,21c-16,7-63,16-104,19
		c-41,4-77,8-79,10c-2,3-5,51-8,108c-3,103-10,238-18,376c-4,72-4,74,17,69c51-13,155-18,161-8c7,11,106,3,120-10c6-5,23-9,38-9
		c33,0,37,19,8,45c-15,13-23,15-33,7c-8-7-17-8-23-2c-8,8-34,12-154,26c-25,2-54,9-65,14c-11,6-72,16-135,23c-115,12-115,12-118,40
		c-4,29-11,34-29,16c-8-8-13-8-17,0c-4,6-16,11-27,11c-10,0-19,7-19,15c0,23-76,57-110,50c-21-5-33-1-48,15c-20,22-114,42-158,34
		c-14-3-24,2-28,12c-5,13-9,14-21,4s-18-10-29-1c-8,7-34,14-58,16c-113,8-194,17-202,23c-6,3-33,7-60,8c-28,2-52,8-54,13
		c-2,6-10,11-18,11s-14,7-14,15c0,19-9,19-32-2c-10-9-20-14-22-12c-3,3-7,55-9,117s-7,115-10,119c-10,9-9,153,1,153
		c12,0,15,147,3,155c-6,3-11,40-11,85c0,78,0,79,28,82c23,3,27,8,30,39c2,23-2,40-12,49c-16,13-22,70-8,70c4,0,13-5,20-12
		c10-10,16-8,30,5c16,17,16,19-2,29c-10,6-35,25-55,42c-20,18-53,40-73,49c-20,10-40,22-43,27c-4,6-21,17-38,26c-48,23-87,45-140,82
		c-48,32-109,43-122,22c-3-5-42-10-86-10h-79l17,26c15,24,16,39,5,177c-13,163-24,194-54,155c-19-25-24-88-8-104c5-5,12-60,14-122
		c3-61,7-116,10-121c4-5,3-12-2-15s-89-8-188-12c-231-8-242-9-250-17c-4-4-18-7-31-7c-16,0-23-6-23-20c0-10-9-24-20-30s-20-17-20-24
		c0-8-7-12-17-10c-34,9-60-105-31-134c19-19,0-27-28-11c-23,12-27,11-39-4c-15-21-38-22-55-2c-7,8-16,12-21,10c-10-7-114,62-189,125
		c-30,26-78,61-106,78c-28,18-59,41-69,52s-24,20-31,20s-14,3-16,8c-1,4-39,34-83,67c-90,68-112,85-169,136c-23,19-76,61-119,93
		s-83,66-90,77c-6,10-17,19-24,19c-13,0-73,43-143,102c-19,16-55,44-80,63s-87,67-139,107c-51,40-106,82-121,93
		c-70,50-121,85-125,85c-2,0-21,15-41,34c-21,19-58,43-83,52c-26,9-48,20-51,23s-31,19-62,35c-32,15-69,39-83,52c-15,13-31,22-36,19
		c-5-4-9-2-9,3s-15,15-32,22c-18,7-49,19-68,28s-42,15-51,14c-9-2-19,4-22,12s-21,17-39,21s-42,14-53,21c-11,8-26,14-33,14
		c-8,0-27,9-43,21c-16,11-35,22-42,23s-17,5-23,8c-6,4-31,10-55,14s-48,10-54,14c-5,4-35,13-65,19c-30,7-64,16-75,21s-51,14-88,20
		c-38,6-76,15-85,20c-28,15-187,39-362,55c-212,20-212,20-230,28c-25,12-446,3-461-9c-8-7-97-17-199-24s-189-15-195-20
		c-5-4-50-11-100-14c-49-4-94-11-100-16c-11-9-104-16-375-25c-85-4-171-8-190-10c-163-21-220-27-249-26c-19,0-48-6-65-13
		c-41-19-75-29-109-31c-15-2-33-8-41-14c-8-7-38-14-67-18c-30-3-59-9-64-14c-6-4-42-13-80-20c-39-6-74-15-80-19c-5-4-26-11-45-15
		s-44-13-56-20c-12-8-38-17-58-20c-20-4-39-11-41-16c-3-4-26-11-52-15c-25-4-58-13-72-20c-14-8-32-14-39-14s-34-11-60-25
		s-53-25-59-25c-7,0-13-5-13-11s-7-8-16-5s-25-1-37-9s-29-15-39-15s-18-4-18-10c0-5-8-10-18-10s-29-8-42-17c-14-10-26-17-27-16
		c-3,3-75-26-156-61c-21-9-44-16-53-16c-8,0-27-8-42-18s-41-28-58-39c-36-25-96-43-141-43c-17,0-35-4-38-10c-3-5-37-10-75-10
		s-72,5-75,10c-3,6-32,10-63,11c-100,1-189,22-227,52c-19,15-35,34-35,42s-7,15-16,15c-13,0-14,18-10,143c2,78,7,161,11,185
		c5,28,3,42-4,42c-6,0-11,6-11,14c0,7-7,19-15,26c-9,8-12,22-8,41c3,17,0,35-7,44c-13,16-1,21,16,6c5-4,21-11,37-15c25-6,27-4,27,24
		c0,22-7,34-27,45c-16,9-46,26-68,39s-60,34-85,47c-25,12-47,26-50,30c-3,5-27,17-52,29c-26,11-48,24-50,28s-23,17-48,29
		c-25,13-62,33-82,45c-29,18-40,20-49,11c-10-10-9-16,1-28c7-8,9-19,5-23s-10-1-13,7c-9,25-43,52-60,47c-9-2-53-6-97-8s-83-7-86-12
		c-4-5-19-6-33-2c-25,6-26,8-27,94c-1,122,1,179,7,240c6,48,5,52-15,52C1840,6130,1830,6129,1829,6128z M6815,5480
		c50-6,114-10,143-10c32,1,63-5,76-14c24-15,126-37,138-30c4,2,9,0,13-6s12-7,18-3c18,11,51,12,64,1c7-5,17-7,22-4c5,4,12,2,16-3
		c3-6,32-13,65-17s60-10,60-14s18-13,41-20c23-8,43-19,45-24c2-6,18-12,36-13c17-1,41-12,53-23s29-20,39-20s16-6,13-12
		c-5-16-12-15-119,16c-48,13-113,28-145,32s-61,11-64,16c-4,6-46,14-94,19s-104,13-124,18c-20,6-80,13-133,17c-54,4-106,7-115,8
		c-10,1-29,7-42,15c-14,8-26,9-30,4c-6-10-290,3-301,13c-12,12,21,40,58,49c22,6,43,13,46,16C6602,5499,6705,5494,6815,5480z
		 M6128,5416c17-1,32-6,32-11c0-11-77-19-167-19c-29,1-53-3-53-7c0-11-96-29-185-34c-43-2-81-9-85-14c-3-6-28-13-55-16
		c-28-3-74-10-103-15c-28-5-59-7-67-3c-9,3-23-1-33-10c-9-8-35-17-57-21c-78-12-90-15-93-25c-2-6-21-11-42-11s-42-5-46-11
		s-20-9-38-6c-19,3-39-1-51-9c-25-19-30-18-43,9c-10,22-11,21-23-10c-17-41-38-42-46-3c-7,39-27,33-31-8c-3-25-9-33-30-38
		c-15-4-31-10-37-14c-5-5-30-13-55-20c-25-6-52-14-60-17s-22-7-30-8s-32-7-53-14s-41-10-44-7s-17-4-31-14c-13-11-37-20-53-20
		c-15,0-30-4-34-9c-3-5-31-15-62-21c-31-7-64-16-72-21c-37-19-135-49-147-45c-8,3-18-4-24-14c-6-12-21-20-35-20c-35,0-33,35,3,49
		c15,6,42,20,60,31s37,18,42,15s11-1,15,5c3,5,21,10,38,10c18,0,44,6,58,14c15,7,58,23,95,35c38,12,80,28,94,35s31,11,38,9
		c8-3,30,3,50,12c93,44,122,60,122,66c0,3,18,12,40,19s40,16,40,20c0,3,17,12,38,19c20,8,39,17,42,20c4,6,92,34,145,46
		c11,3,34,8,50,12c17,4,35,8,40,8c6,1,28,5,50,8c69,13,155,16,161,6c3-5,11-6,17-2c15,9,38,13,127,20c41,3,80,9,86,14s46,11,90,15
		c43,3,84,11,91,16c7,6,19,5,33-2c11-6,26-7,33-3c6,4,31,8,55,9c23,1,45,3,47,6c3,3,31,3,63,0C6069,5419,6110,5416,6128,5416z
		 M6763,5366c15,5,34-12,23-23c-8-8-96,7-96,17c0,12,33,18,46,8C6742,5363,6754,5362,6763,5366z M7026,5336c16-16,25-74,13-81
		c-5-4-15-2-22,3s-32,13-57,17c-54,9-112,48-103,71c5,13,18,14,82,9C6981,5351,7020,5343,7026,5336z M6015,5320c-3-10-1-28,4-41
		s22-64,36-114c15-49,31-99,35-110c14-34,34-99,36-116c1-9,4-21,8-27c3-6,17-52,30-104c14-51,34-129,45-172c20-77,26-114,16-105
		c-9,10-88,272-99,329c-1,8-5,22-9,30c-3,8-18,53-32,100s-44,142-67,211c-22,70-38,132-34,138C5995,5356,6021,5340,6015,5320z
		 M7215,5321l40-6l9-68c9-74,6-84-21-71c-10,4-40,15-68,24c-47,14-51,19-60,58c-6,24-17,47-24,51c-27,17,0,33,43,26
		C7156,5331,7193,5325,7215,5321z M5925,5319c18-18,13-719-5-719c-6,0-15,24-59,170c-21,72-31,111-38,155c-3,17-9,38-14,47
		c-12,22-11,31,2,23c6-4,17,1,24,11c11,15,13,42,8,124c-11,182-10,188,25,192C5901,5327,5918,5326,5925,5319z M5788,5283
		c0-10,3-39,7-65c4-25,4-72,0-104c-6-50-9-55-18-39c-23,39-61,201-51,216c3,5,18,9,34,9C5781,5300,5789,5295,5788,5283z M6156,5289
		c7-13-6-313-14-304c-3,3-18,41-32,86c-26,78-26,80-7,90c17,10,18,18,12,65c-3,29-4,58,0,64C6123,5303,6147,5303,6156,5289z
		 M7440,5271l35-11l-1-82c-1-129,4-121-56-90c-49,25-53,30-65,82c-8,30-17,65-20,77C7320,5300,7334,5303,7440,5271z M6247,5097
		c2-218-8-458-18-432c-29,77-50,179-45,217c3,24,8,119,11,212c3,109,8,173,16,182C6237,5308,6245,5270,6247,5097z M6394,5277
		c13-10,17-24,14-62c-2-28-7-49-13-48c-8,2-33,86-35,116C6360,5294,6374,5292,6394,5277z M5665,4883c0-215-3-383-7-372
		c-6,14-17,19-46,19c-45,0-56,10-69,60c-8,29-6,38,9,50c16,13,17,23,10,85c-5,39-7,90-6,115c2,25,5,133,8,240s5,196,5,198
		c1,2,22,2,49,0l47-3V4883z M6315,5225c12-38,23-54,33-53c19,4,35-40,77-212c19-74,46-177,60-229c14-51,24-100,22-110
		c-5-23-21,17-52,137c-15,53-29,106-32,117c-2,11-8,38-13,60c-12,62-50,198-60,215c-15,24-13-6,5-74c8-32,22-86,29-120
		c35-153,65-274,79-313c16-48,12-53-47-53c-18,0-37-5-44-12c-16-16-26-4-15,19c13,25,7,383-6,396c-26,26-36-14-37-146
		c-1-73-4-149-8-171c-4-26-1-48,9-68c18-37,12-48-26-48h-30l6,93c4,50,8,211,10,357c1,146,3,266,4,268
		C6286,5292,6301,5270,6315,5225z M5507,5017c-4-126-9-232-12-235c-9-9-15,3-45,91c-26,76-29,101-29,199c0,62,2,123,6,136
		c5,23,60,54,77,44C5509,5249,5510,5146,5507,5017z M7690,5250c0-5-4-10-10-10c-5,0-10,5-10,10c0,6,5,10,10,10
		C7686,5260,7690,5256,7690,5250z M6524,5219c8-39,6-322-3-409l-6-65l-22,65c-40,120-64,222-55,234c5,6,12,50,15,98
		c5,98,9,108,41,108C6512,5250,6519,5243,6524,5219z M7754,5235c8-8,19-15,25-15s11-4,11-10c0-14-13-12-36,5c-10,8-27,15-36,15
		c-10,0-18,5-18,10C7700,5255,7737,5252,7754,5235z M6005,5153c26-83,26-90,16-182c-17-139-31-350-25-366c3-7,1-16-5-19
		c-6-4-8-13-5-20c7-17-12-30-21-15c-8,13-9,173-1,461c3,113,6,211,6,217C5970,5255,5979,5234,6005,5153z M6648,5217
		c8-7,12-46,12-136c-1-163-13-142-77,127c-5,21-3,23,23,21C6622,5227,6641,5222,6648,5217z M7653,5207c22-10,27-18,27-47
		c0-19-5-53-11-75s-13-53-17-69c-11-42-36-49-27-7c7,34-1,40-19,15c-14-19-43-9-51,17c-5,15-10,17-20,9c-19-16-32,7-40,74
		c-9,68,10,73,21,5c8-49,17-55,34-24c10,18,10,34,2,66c-6,24-8,47-5,52C7553,5233,7612,5224,7653,5207z M5393,5148
		c-7-91-7-125-1-283c3-68,2-151-6-395c-3-129-6-248-7-265c0-33-14-63-25-53c-3,4-5,62-4,130s2,132,1,143c-6,129,5,771,14,786
		c4,5,12,9,20,9C5396,5220,5398,5206,5393,5148z M6354,5204c3-8,2-12-4-9s-10,10-10,16C6340,5225,6347,5222,6354,5204z M7334,5150
		c-8-7-24,24-23,45c0,15,4,13,14-10C7332,5169,7336,5153,7334,5150z M7890,5195c36-21,76-37,95-39c6-1,24-11,40-23
		c24-17,27-24,18-34c-10-10-15-10-27,0c-18,15-87,51-97,51c-15,0-109,45-109,53C7810,5215,7864,5210,7890,5195z M6784,5172
		c8-13-15-516-24-525c-4-5-15,9-24,30c-10,21-22,47-27,58s-13,40-18,65s-12,52-15,61c-5,10,1,19,18,27c29,13,40,70,38,206
		c0,49,1,93,4,98C6741,5200,6775,5186,6784,5172z M5255,5063c-3-65-10-168-16-230c-6-61-8-149-5-195c4-45,7-91,7-101
		c0-25,26-33,48-13c24,22,29,20,23-9c-2-14-11-25-21-25c-9,0-28-7-43-14c-54-28-71-25-87,19c-8,22-21,56-29,75c-22,50-24,77-11,102
		c8,15,13,88,15,203c2,99,7,205,11,235c8,53,9,55,43,61C5266,5185,5261,5193,5255,5063z M6846,5162c7-4,19-34,27-67
		c42-163,41-152,20-179c-20-25-24-60-27-235c-1-40-5-56-19-65c-15-9-22-7-39,14c-16,20-19,33-14,75c3,27,8,124,11,215
		c6,178,12,250,23,250C6832,5170,6840,5166,6846,5162z M7788,5149c94-30,96-33,71-99c-11-30-28-75-36-100c-9-25-19-49-23-53
		c-11-12-88,41-96,65c-6,20,5,208,13,208C7719,5170,7751,5160,7788,5149z M5734,5038c32-104,34-121,26-174c-18-122-20-230-4-252
		c8-12,21-19,30-15c12,4,13,20,8,94c-4,52-3,89,2,89c8,0,40-105,59-194c5-25,4-27-12-21c-30,14-87,6-116-16c-16-11-31-19-33-16
		c-5,5-7,150-5,426c1,112,4,202,6,199C5697,5156,5715,5102,5734,5038z M5074,5079c-5-247-10-311-25-287c-10,15-12,342-2,352
		C5065,5162,5075,5138,5074,5079z M6939,5103c0-31-2-34-9-18c-12,28-12,55,0,55C6936,5140,6940,5123,6939,5103z M5015,5010
		c1-58-3-115-8-127c-6-13-6-33,1-52c14-40,3-84-18-71c-11,7-16,32-17,97c-6,261-6,267,25,261C5013,5115,5015,5099,5015,5010z
		 M4929,5046c-1-89-11-96-41-27l-26,60l21,14C4918,5116,4930,5103,4929,5046z M7027,5102c16-10,18-55,9-232c-7-157-15-244-23-236
		c-12,12-21,81-12,93c7,7,8,26,3,45c-4,18-8,102-9,186C6994,5109,6996,5122,7027,5102z M8090,5089c0-5,4-8,9-5c11,7,36-22,27-31
		c-3-3-14,1-24,10c-10,10-24,17-30,17c-7,0-12,5-12,10c0,6,7,10,15,10S8090,5095,8090,5089z M7930,5074c0-8-4-12-10-9
		c-5,3-10,10-10,16c0,5,5,9,10,9C7926,5090,7930,5083,7930,5074z M7110,4996c18-68,20-94,14-199c-4-67-8-131-9-142s-3-28-4-37
		c-1-21-34-24-49-5c-6,7-9,45-7,87c2,41,6,140,10,219c6,131,11,169,20,159C7087,5076,7098,5039,7110,4996z M4876,4969l42-96l7-167
		c4-93,4-203,0-246c-7-77-7-77-43-92c-73-31-110-41-128-34s-18,8,4,24c31,24,46,82,33,130c-7,23-9,109-6,213c8,306,8,326,0,339
		c-9,14,13,31,34,27C4827,5066,4853,5022,4876,4969z M6610,4910c31-105,46-275,26-287c-6-4-26-8-43-10c-38-2-55,19-47,62
		c3,15,6,109,8,209c2,99,5,183,6,186s7-11,12-30C6578,5021,6595,4962,6610,4910z M8022,5047c12-19-2-127-22-176c-10-25-21-54-24-63
		c-6-20-34-14-52,11c-19,25-11,150,14,205c20,45,24,48,49,41C8002,5062,8018,5053,8022,5047z M8170,5050c0-5-4-10-10-10
		c-5,0-10,5-10,10c0,6,5,10,10,10C8166,5060,8170,5056,8170,5050z M4729,4833c-1-120-4-261-8-313l-6-95l-29,55c-16,30-37,65-46,78
		c-16,20-18,44-15,236c1,118,6,219,9,225c4,6,17,11,29,11s29,5,37,10s18,10,23,10C4727,5050,4729,4952,4729,4833z M7247,5008
		c10-8,13-44,11-142c-2-127-10-189-21-156c-8,25-31,134-33,155c-1,11-9,49-18,84c-21,79-17,95,21,80C7222,5024,7240,5014,7247,5008z
		 M7879,4929c-13-38-29-69-36-69c-19,0-16,20,14,100c21,58,28,69,36,55C7900,5003,7895,4978,7879,4929z M8170,4931
		c0-53-60-221-79-221c-4,0-15,8-24,18c-24,26-19,227,6,266l17,26l40-26C8165,4971,8170,4962,8170,4931z M4593,4623
		c0-197-2-366-2-375c-1-10-9-18-18-18c-17,0-18,26-21,374c-2,349-1,375,15,385c10,5,20,6,23,1C4593,4986,4594,4821,4593,4623z
		 M7680,4978c0-16-3-19-11-11c-6,6-8,16-5,22C7675,5006,7680,5002,7680,4978z M7327,4978c6-7,13-31,17-53s11-60,16-85
		c8-46-7-258-20-273c-4-4-18,1-31,12c-24,19-24,19-20,207c1,104,5,192,8,196C7303,4994,7316,4992,7327,4978z M4524,4824
		c7-136,0-171-20-107c-6,21-24,70-39,108c-27,68-45,147-30,133c4-3,21,0,38,7c24,10,34,10,38,2C4515,4960,4520,4896,4524,4824z
		 M5316,4892c-11-10-14,3-8,33l7,30l3-28C5320,4911,5319,4896,5316,4892z M7451,4940c10-6,19-17,19-25c0-19,21-30,29-16
		c11,18,38,3,46-26c5-21,8-23,22-11c15,12,16,8,9-46c-3-33-13-73-20-90c-8-17-18-42-21-55c-4-14-16-38-26-55l-19-31v27
		c0,14,10,51,21,82c21,53,19,89-1,56c-7-11-10-3-10,27c0,53-20,68-21,16c-1-21-4-49-8-63c-7-21-10-16-21,35c-7,33-17,64-22,70
		c-9,10-11,115-2,115C7429,4950,7440,4945,7451,4940z M8270,4935c17-9,30-20,30-25c0-6,8-10,18-10s22-3,25-6c8-8-9-40-33-67
		c-10-10-20-37-23-60c-16-123-37-158-77-122c-20,18-21,27-17,130C8200,4952,8208,4967,8270,4935z M4367,4693c-4-131-10-264-13-296
		c-6-53-8-56-20-35c-60,106-106,243-110,331c-2,42-1,77,4,77c4,0,15-20,25-45c26-62,47-59,48,7c0,37-3,51-19,91c-27,64-25,71,15,89
		C4378,4948,4374,4960,4367,4693z M4108,4908c-3-7-13-14-24-16c-10-2-28-7-39-12c-54-22-105-39-105-34c0,4-7,1-15-6c-9-7-18-10-22-7
		c-3,4-12,2-20-5c-7-6-16-8-20-5c-3,4-19-1-34-10c-23-14-31-15-41-5s-9,15,3,28c9,8,22,16,30,17c8,2,20,6,27,11c7,4,30,9,51,11
		c21,1,45,6,52,11c16,10,103,31,137,33C4103,4920,4110,4915,4108,4908z M6121,4762c6-19,12-44,14-55c1-12,12-50,24-84
		c27-81,27-93-1-87c-13,3-34,7-48,10s-29,10-35,15c-21,21-27,296-8,349c3,8,14-14,24-50C6102,4824,6115,4780,6121,4762z M6935,4828
		c4-28,16-81,26-117c11-36,19-74,19-83c0-23-28-23-52-1c-16,14-18,33-18,140C6910,4894,6922,4923,6935,4828z M4196,4705
		c-1-111-4-148-15-154c-9-6-11-16-5-32c12-39,14-63,17-304c4-226,1-255-29-255c-10,0-13,31-14,133c-1,72-1,139-1,147
		c1,13,0,171,0,210c-1,8,0,49,0,90s0,128-1,192c-1,86,2,121,12,133C4188,4899,4197,4859,4196,4705z M7890,4860c0-5-5-10-11-10
		c-5,0-7,5-4,10c3,6,8,10,11,10C7888,4870,7890,4866,7890,4860z M8420,4770c0-53-21-140-47-197l-15-32l-29,21c-24,18-29,29-29,62
		c1,23,8,59,16,81c9,22,19,54,23,70c4,17,16,45,25,63l17,33l20-24C8414,4829,8420,4806,8420,4770z M5319,4745c0-63-5-115-10-115
		c-9,0-11,192-2,216C5318,4875,5320,4857,5319,4745z M4110,4780c0-44-4-70-11-70c-6,0-13,9-16,20s-9,20-13,20c-6,0-30,66-30,83
		c0,3,12,8,28,10c15,2,30,5,35,6C4107,4849,4110,4819,4110,4780z M5454,4775c6-28,5-29-9-11c-8,11-15,28-15,37c0,10-3,26-6,36
		s1,7,9-7S5450,4792,5454,4775z M7668,4715c-2-118-10-154-23-102c-5,17-2,153,5,225c0,1,4,2,10,2S7669,4792,7668,4715z M3740,4815
		c0-8,0-18,0-22c0-5-9-8-21-8c-11,0-24-6-28-13s-20-14-34-16c-15-1-30-6-34-9c-3-4-16-7-28-7s-25-3-29-7c-3-4-14-8-24-9
		c-9-1-42-11-72-23s-62-21-71-21c-41,0-25,64,18,75c15,3,34,12,41,18c15,12,28,15,132,23c41,3,78,11,81,16c4,6,11,8,17,4
		c6-3,13-2,17,4C3715,4835,3740,4832,3740,4815z M8020,4793c0-27-3-34-11-26c-7,7-9,23-5,37C8013,4841,8020,4836,8020,4793z
		 M4004,4811c3-4,1-23-4-42c-6-18-10-70-11-114c-1-106-18-357-25-364c-3-3-9,1-14,9s-12,12-15,8c-3-3,5-34,19-69c15-34,26-68,26-76
		c0-23-20-14-31,15c-11,28-27,61-46,97c-6,11-28,61-49,110c-21,50-46,104-56,120c-10,17-18,44-18,60v30l22-35c13-19,30-51,38-70
		c46-102,76-159,83-160c15,0,5,29-54,150c-114,232-117,246-70,279c16,12,37,21,48,22c10,0,43,8,73,19C3985,4821,3997,4823,4004,4811
		z M7444,4711c28-145,16-180-16-48c-19,79-24,157-9,142C7424,4799,7436,4757,7444,4711z M7751,4783c10-11,9-21-4-47
		c-8-18-21-59-28-90c-8-31-17-56-21-56c-10,0-10,42-2,142c6,67,9,75,25,71C7731,4800,7745,4791,7751,4783z M8519,4773
		c19-16,22-32,28-133c4-92,2-122-10-152c-9-21-21-38-27-38s-27,12-46,26c-33,25-34,29-34,92c0,80,37,222,59,222
		C8494,4790,8507,4782,8519,4773z M4484,4694c13-37,29-70,35-72c8-3,11-61,11-190c-1-201-5-232-26-232c-7,0-22-10-33-22l-20-21
		l-12,29c-15,35-13,264,2,348c6,32,10,79,9,105c-3,75,0,135,5,129C4458,4766,4471,4732,4484,4694z M8155,4682c-3-3-10-1-16,5
		c-8,8-7,22,2,50l14,38l3-44C8160,4708,8159,4685,8155,4682z M2663,4748c18-14,25-72,13-99c-5-12-1-18,13-22c17-4,36-36,65-107
		c3-8,10-22,15-30c30-50,112-246,114-273c3-54-16-42-55,35c-55,111-128,266-128,273c0,4-14,37-31,73c-31,67-50,162-32,162
		C2642,4760,2654,4754,2663,4748z M7594,4651c-4-42-8-87-9-101c-5-56-4-54-21-39c-9,7-26,13-38,14c-27,0-24,18,14,97
		c16,32,31,72,35,88c4,17,11,27,17,24C7598,4730,7599,4700,7594,4651z M3345,4698c-9-39-11-42-24-33c-15,8-14,38,1,53
		C3343,4739,3352,4731,3345,4698z M3742,4680c1-19-1-35-7-35c-5,0-10,19-10,42C3724,4737,3737,4731,3742,4680z M5059,4698
		c5-18,21-66,36-107c14-40,24-75,22-78c-6-5-55,99-63,134c-4,13-10,26-15,29c-12,7-12,54,1,54C5045,4730,5053,4715,5059,4698z
		 M8599,4721c11-7,11-15,0-45c-18-49-29-45-29,9C8570,4731,8574,4736,8599,4721z M2744,4712c2-4,20-7,40-6s39-2,42-7s14-9,25-9
		c24,0,33-21,24-57l-6-27l-25,30c-17,19-27,25-30,17c-7-17-54-16-76,0c-24,19-35,67-15,67C2732,4720,2741,4717,2744,4712z
		 M3685,4676c4-24,4-115,1-202s-5-221-6-296c0-106-3-138-13-138s-12,56-10,278c1,152-2,301-7,331c-10,57-7,71,15,71
		C3674,4720,3681,4704,3685,4676z M5462,4631c12-31,24-71,28-89c7-29,6-32-11-27c-11,4-26,1-34-5c-32-27-35-3-26,185
		c1,27,3,28,12,11C5437,4696,5451,4662,5462,4631z M3283,4703c3-5,1-18-4-30c-10-28-68-42-81-19c-12,21-25,20-31-3
		c-3-15-17-21-53-26c-27-3-61-8-76-10c-26-4-28-2-28,30c0,39-6,37,123,39c31,1,57,5,57,10c0,4,7,6,15,3c8-4,17-2,20,3
		C3232,4712,3277,4713,3283,4703z M5004,4529c-1-100-5-164-12-171c-14-14-24,24-18,67c3,17,5,88,5,160c1,103,3,126,14,116
		C5002,4692,5005,4645,5004,4529z M7185,4675c3-14,7-36,10-50c4-20,1-25-15-25c-17,0-20,7-20,50C7160,4702,7176,4718,7185,4675z
		 M2981,4639c-4-11-11-20-16-20c-13,0-18,27-11,48c5,12,9,13,21,3C2984,4663,2986,4651,2981,4639z M3576,4503c-4-98-10-234-12-302
		c-2-69-6-127-9-129c-2-3-41,71-87,164l-82,169l-2,112c-2,123-1,127,56,136c19,3,51,10,70,15C3588,4690,3584,4702,3576,4503z
		 M7920,4658c0-16-3-19-11-11c-6,6-8,16-5,22C7915,4686,7920,4682,7920,4658z M8669,4664c22-16,23-21,18-98c-5-78-43-197-64-196
		c-4,1-21,11-37,24c-27,22-29,28-22,73c8,64,58,212,71,213C8641,4680,8656,4673,8669,4664z M4094,4637c18-30,20-56,22-350
		c2-243,0-317-9-314c-7,3-11,10-9,16c1,6-2,11-7,11c-18,0-36,69-37,150c-1,47-3,119-5,160c-3,94,11,360,20,360
		C4072,4670,4084,4655,4094,4637z M8001,4660c15,0,10-32-8-52c-25-28-33-22-33,23c0,33,3,40,16,35C7985,4663,7996,4660,8001,4660z
		 M7877,4601c-4-32-16-82-27-110c-17-45-18-52-5-57c8-4,15-13,15-21c0-11-5-13-17-8c-10,4-26,10-37,13c-16,4-18,12-12,74
		c6,67,23,115,54,151C7875,4674,7883,4663,7877,4601z M3349,4520c-1-55-5-100-10-100c-11,0-18,28-20,90c-3,92,0,110,16,110
		C3348,4620,3350,4603,3349,4520z M2784,4594c17-16,22-64,8-64c-7,0-42,63-42,75C2750,4615,2769,4609,2784,4594z M3273,4578
		c7-47-10-58-27-17c-15,36-13,49,8,49C3262,4610,3270,4595,3273,4578z M3154,4374c-1-119-6-219-9-223c-9-9-102-4-121,7
		c-14,8-17,39-20,202c-2,106,1,200,6,209c6,13,25,18,78,19l69,3L3154,4374z M5050,4580c0-6,9-29,19-53c31-69,34-84,14-90
		c-10-2-26-8-35-12c-16-6-18,1-18,79c0,51,4,86,10,86S5050,4585,5050,4580z M7407,4558c-3-7-5-2-5,12s2,19,5,13
		C7409,4576,7409,4564,7407,4558z M8123,4578c12-7,26-17,30-23c10-14-2-93-20-129c-9-17-13-41-9-60c5-31-26-117-37-100
		c-2,5-4,54-2,109s3,126,4,158c1,31,3,57,6,57S8110,4584,8123,4578z M8772,4578c52-31,56-38,46-82c-5-22-16-51-24-63s-14-28-14-36
		c0-21-39-97-51-97c-20,0-38,66-33,121c5,45,43,169,52,169C8749,4590,8760,4584,8772,4578z M2880,4544c0-13-4-24-10-24
		c-5,0-10,14-10,31s4,28,10,24C2876,4572,2880,4558,2880,4544z M2978,4367c2-188-2-230-22-199c-6,10-9,136-7,295c1,90,4,118,14,115
		C2972,4574,2976,4521,2978,4367z M3749,4314c1-136,4-251,7-256c6-10-12-28-28-28c-4,0-7,123-5,274c1,199,5,272,13,265
		C3743,4563,3748,4479,3749,4314z M2700,4455c23-55,51-116,61-136c11-21,17-43,14-50c-3-8-6-30-8-49c-3-37-22-49-55-34
		c-9,4-25,8-35,9s-22,6-27,11c-8,8-16,232-11,339C2640,4585,2650,4571,2700,4455z M7920,4540c0-11-4-20-10-20c-5,0-10,9-10,20
		s5,20,10,20C7916,4560,7920,4551,7920,4540z M8410,4551c0-6-4-13-10-16c-5-3-10,1-10,9c0,9,5,16,10,16
		C8406,4560,8410,4556,8410,4551z M8196,4503c-10-10-19,5-10,18c6,11,8,11,12,0C8200,4514,8199,4506,8196,4503z M4689,4410
		c22-52,41-101,41-108c0-22-20-12-31,16c-6,15-17,41-25,57c-31,60-54,127-48,137C4635,4527,4644,4513,4689,4410z M2880,4423
		c-1-81-2-86-16-68c-10,13-13,31-10,53c3,17,9,48,12,67s8,35,10,35S2880,4471,2880,4423z M7750,4459c0-15-4-15-25-6
		c-21,11-25,24-16,54C7712,4517,7750,4472,7750,4459z M8900,4495c36-18,48-56,28-88c-8-12-25-49-38-82c-45-116-50-113-50,23
		c0,80,4,129,12,142C8867,4514,8864,4514,8900,4495z M6625,4490c5-7,11-8,19-1c6,5,34,9,61,8l50-2l3-37c4-42,4-42-98-53
		c-116-13-115-14-118,23c-4,38,10,59,41,65c12,2,25,5,29,6C6616,4499,6622,4495,6625,4490z M8050,4399c0-76-3-100-12-96
		c-21,7-13,197,7,197C8048,4500,8050,4455,8050,4399z M3269,4403c4-37,7-115,7-173c-1-96-3-105-20-105s-19,10-21,110
		C3230,4457,3252,4567,3269,4403z M6859,4476c8-5,16-4,21,4c5,9,9,9,14,1c4-6,26-11,50-11c30,0,48-6,61-20c24-27,12-30-110-27
		c-87,2-100,5-103,20c-2,10-2,24,1,31C6798,4488,6838,4489,6859,4476z M5655,4461c-3-6-14-11-23-11c-15,1-15,2,2,15
		C5655,4481,5666,4478,5655,4461z M7993,4458c-4-13-7-49-5-80c2-58-4-68-26-46c-16,16-15,68,3,112C7982,4483,8007,4496,7993,4458z
		 M5730,4460c8-5,12-12,9-15c-8-8-39,5-39,16S5711,4472,5730,4460z M8274,4388c-7-89-18-128-34-128s-12,146,5,180
		C8272,4492,8281,4476,8274,4388z M3820,4408c0-8,68-156,116-253c21-44,23-58,18-117c-7-64-15-81-29-58c-4,6-11,8-16,4
		c-6-3-18-2-27,2s-35,12-57,18l-40,11l-3,225l-2,225l20-25C3811,4426,3820,4412,3820,4408z M5150,4439c0-6-4-7-10-4
		c-5,3-10,11-10,16c0,6,5,7,10,4C5146,4452,5150,4444,5150,4439z M5874,4450c-6-6-21-6-39-1c-30,9-30,9,10,10
		C5870,4460,5881,4457,5874,4450z M6510,4433c0-42-10-50-65-58c-27-4-63-13-80-20c-37-16-98-6-103,17c-3,15,29,32,55,29
		c18-2,142,39,149,50c3,5,14,9,25,9C6505,4460,6510,4453,6510,4433z M8320,4447c0-7-6-21-13-32c-13-16-14-15-9,13
		C8302,4459,8320,4474,8320,4447z M9017,4413c49-37,54-58,31-118c-32-83-72-155-83-152c-16,6-5,297,11,297
		C8979,4440,8997,4428,9017,4413z M8353,4362c-3-26-11-54-19-62c-8-10-11-38-9-87c2-40,0-73-5-73c-17,0-51,53-40,64c5,5,10,24,10,41
		c0,29,16,89,39,148C8345,4435,8360,4416,8353,4362z M5537,4378c5-7,14-29,20-49c9-31,8-38-9-48c-26-16-35-8-43,39
		c-4,22-12,43-18,47c-7,4-3,9,9,14C5523,4392,5526,4391,5537,4378z M5660,4331c0-58-1-60-26-57s-44,20-44,41c0,5,5,4,11-2s18-9,25-6
		c16,6,19,39,4,48c-18,11-11,35,10,35C5658,4390,5660,4383,5660,4331z M5858,4381c10-6,10-10-3-21c-12-10-15-10-15,5c0,14-3,15-14,6
		c-9-8-16-8-20-2c-5,8,5,14,34,20C5843,4389,5851,4386,5858,4381z M8820,4348c0-24-3-53-6-65c-7-26-32-31-40-8c-7,17,26,115,38,115
		C8816,4390,8820,4371,8820,4348z M5310,4371c0-5,3-18,6-28c6-16,5-16-9,2c-19,23-21,35-7,35C5306,4380,5310,4376,5310,4371z
		 M6232,4375c3-3,2-20-1-38c-5-25-13-33-41-41c-19-5-38-14-41-18c-3-5-20-10-38-13c-18-2-38-8-44-13c-10-8-95-32-112-32
		c-4,0-5,10-3,23c2,15,11,23,28,25c14,2,32,10,41,18s18,12,21,9s21,11,41,30s43,35,51,35s18,5,21,10C6161,4380,6223,4384,6232,4375z
		 M5230,4360c0-5-4-10-10-10c-5,0-10,5-10,10c0,6,5,10,10,10C5226,4370,5230,4366,5230,4360z M8680,4366c0-3-4-8-10-11
		c-5-3-10-1-10,4c0,6,5,11,10,11C8676,4370,8680,4368,8680,4366z M4665,4309l26-50l-28,3c-26,3-28,7-31,51c-2,26-1,47,2,47
		S4651,4337,4665,4309z M3340,4333c1-10,3-58,6-106c6-91,0-142-15-132c-13,8-14,255-1,255C3335,4350,3340,4342,3340,4333z
		 M3400,4340c0-5,15-42,34-82c45-97,76-169,76-177c-2-26-130,225-130,254c0,8,5,15,10,15C3396,4350,3400,4346,3400,4340z M5712,4308
		c-16-16-35,3-26,26c6,16,8,16,22,2C5721,4324,5722,4318,5712,4308z M9171,4297l57-52l-5-110c-3-60-9-114-13-119c-5-5-27,0-52,12
		c-80,40-78,35-77,173c1,67,3,129,6,136C9096,4360,9113,4351,9171,4297z M5440,4283c0-7-6-13-14-13c-10,0-14,10-14,31
		c1,29,2,30,15,14C5434,4304,5440,4290,5440,4283z M6501,4303c3-120-3-550-8-597c-4-46-10-60-24-63c-11-3-19-9-19-14s-9-9-20-9
		c-14,0-18,5-13,16c5,14,3,15-15,5c-28-15-40-14-44,5c-2,11-17,17-52,20c-27,2-52,6-55,10c-8,8-8,429,0,517c7,78,19,92,87,102
		c51,8,55,5,55-32c1-62-14-315-24-418c-13-128-10-170,11-170c12,0,15,22,16,130c1,72,4,157,8,190c10,102,15,147,21,225
		c8,89,18,110,50,110C6495,4330,6500,4325,6501,4303z M6688,4318c6-8,8-45,3-99c-3-48-3-97,0-110c9-30,12-10,10,64c-2,51,1,58,21,66
		c13,5,25,5,28,0c3-4,4-80,3-169c-2-104,0-160,7-160c6,0,10,45,10,118c0,65,3,122,7,125c4,4,7,24,7,45c1,33,4,37,28,37
		c14,1,34-5,44-12c15-11,17-31,14-195c-7-330-3-373,30-333c10,12,10,18,0,29c-18,23-7,466,12,466c6,0,28-10,51-22l40-23l-8-230
		c-4-126-10-257-14-290l-6-60l-97-2c-59-1-98,2-98,8c0,5-8,9-17,7c-13-2-17,3-15,16c3,17,2,18-12,6c-25-20-71,3-57,29
		c6,10,8,42,4,70c-5,45-7,49-19,34c-24-34-33,25-27,201c3,103,1,166-5,166c-12,0-27-322-17-379c7-40,28-55,38-28c8,17,8-44,1-70
		c-7-25-24-32-24-10c0,13-5,14-82,18c-49,2-56,7-37,26c12,12,15,81,18,407c1,121,6,228,12,238c16,30,79,22,91-12c4-11,9-7,17,13
		C6660,4332,6672,4337,6688,4318z M8190,4274c0-36-4-53-11-49c-6,4-8,26-5,53c5,55,5,52,11,52C8188,4330,8190,4305,8190,4274z
		 M4284,4237c21-45,48-94,58-110l20-27l-34-15c-18-8-45-25-60-37s-29-20-31-17c-3,2-7,68-10,147c-4,107-3,142,6,141
		C4240,4319,4263,4282,4284,4237z M5006,4113c-1-131-3-155-18-170c-17-16-18-15-19,22c-1,22-1,44,0,49c12,62,15,212,6,249
		c-5,18-2,33,6,44c13,14,15,13,20-13C5004,4278,5006,4197,5006,4113z M8936,4293c-7-26-13-71-15-101c-1-8-7-12-13-10
		c-19,7-20,59-1,101C8926,4326,8945,4333,8936,4293z M8520,4300c20-12,16-122-5-154c-11-17-14-35-9-65c5-33,4-41-9-41
		c-25,0-30,18-27,89c1,36,3,86,4,111C8476,4304,8488,4320,8520,4300z M5164,4284c8-21,6-22-31-33c-24-7-34-5-47,10
		c-22,26-21,27,22,32c20,2,40,4,43,5C5155,4299,5161,4293,5164,4284z M5298,4222c30-34,28-95-4-100c-26-4-38,22-24,48
		c14,27,12,56-5,70c-8,7-15,20-14,29c0,13,2,13,12-3C5270,4256,5285,4236,5298,4222z M8440,4270c0-5-5-10-11-10c-5,0-7,5-4,10
		c3,6,8,10,11,10C8438,4280,8440,4276,8440,4270z M5866,4259c3-6,17-9,30-6c21,4,24,0,24-25c0-21-7-31-27-41c-16-6-30-14-33-17
		s-16-11-29-18c-20-12-25-12-32,0c-6,9-9,10-9,1c0-13-71-63-89-63c-5,0-11,12-14,26c-4,21,4,36,35,70c22,24,46,44,53,44s18,7,25,15
		s16,13,20,10c5-3,11-1,15,5C5843,4273,5857,4273,5866,4259z M6225,4038c-4-128-6-242-6-253c4-119,1-124-62-120c-29,2-60,4-69,4
		c-30,2-38,63-28,211c9,140,27,302,36,333c3,9,15,17,27,17c12,1,40,9,62,20s41,19,43,20C6230,4270,6229,4165,6225,4038z M7008,4233
		c4-39-4-40-52-12c-53,31-47,49,13,46C7002,4265,7005,4262,7008,4233z M7240,4229c0-19-5-29-15-29c-8,0-15,4-15,9s-11,12-25,15
		c-14,4-25,11-25,16c0,15,30,27,56,22C7235,4259,7240,4251,7240,4229z M4760,4216c0-5-7-1-15,10c-8,10-14,24-14,29c0,6,6,1,14-9
		C4753,4235,4760,4222,4760,4216z M7429,4244c11-11-15-17-84-22c-61-4-75-2-75,10c0,8,2,17,5,19C7280,4256,7423,4250,7429,4244z
		 M3433,4155c36-72,39-88,12-65c-12,10-18,10-30,0c-23-19-29-6-33,78C3377,4258,3383,4256,3433,4155z M7750,4209c0-11-27-12-34,0
		c-3,4-3,11,0,14C7724,4231,7750,4220,7750,4209z M736,4206c1,0,5-20,9-43c5-35,4-43-9-43c-26,0-121,22-129,30c-10,9,45,50,67,50
		c9,0,16,5,16,11C690,4219,726,4215,736,4206z M2814,4205c3-8,1-15-4-15c-6,0-10,7-10,15s2,15,4,15S2810,4213,2814,4205z M5458,4208
		c-6-16-36-34-44-25c-9,9,15,37,33,37C5455,4220,5460,4215,5458,4208z M9058,4126l-3-35l-25,19l-25,19l25,48l25,48l3-32
		C9060,4175,9060,4145,9058,4126z M9319,4178c18-16,31-35,29-45c-6-33-76-158-90-158c-10,0-12,24-11,110
		C9251,4237,9250,4236,9319,4178z M6055,4103c-7-117-10-144-19-200c-4-21-7-73-8-116c-1-86-10-100-54-88l-29,8l3,218
		c2,200,4,220,21,237c16,14,71,43,90,47C6061,4210,6059,4162,6055,4103z M4780,4179c0-6-4-7-10-4c-5,3-10,11-10,16c0,6,5,7,10,4
		C4776,4192,4780,4184,4780,4179z M7610,4190c0-12-29-19-65-16c-54,5-60,8-30,15C7559,4199,7610,4199,7610,4190z M8645,4183
		c-4-10-15-60-25-111c-25-128-38-139-41-36c-2,59,26,137,55,156C8651,4203,8653,4202,8645,4183z M5222,4129c13-44,8-55-19-44
		c-10,5-21,8-25,7s-15,12-25,28c-9,17-21,30-25,30s-8,6-8,14c0,17,58,26,77,12C5204,4172,5215,4150,5222,4129z M4740,4134
		c11-26,20-48,20-50c0-10-29-2-32,8c-4,10-10,10-32,0c-15-6-38-12-52-12c-24,0-24,0-8,28c18,28,64,72,76,72
		C4716,4180,4728,4159,4740,4134z M4906,4135c21-60,19-67-18-63c-32,3-34,5-69,79c-10,22-7,25,36,24C4889,4175,4893,4172,4906,4135z
		 M8390,4138c0-23-3-29-9-19c-5,7-7,21-6,30c5,22,4,21,10,21C8388,4170,8390,4155,8390,4138z M8730,4138c-1-25-26-65-36-55
		c-8,8,15,77,27,77C8726,4160,8730,4150,8730,4138z M7408,4134c6-2,12-8,12-13c0-13-62-43-69-34c-3,5-15,13-25,19
		C7269,4137,7330,4158,7408,4134z M8426,4082c-11-10-14,3-7,38l6,35l3-33C8430,4103,8429,4086,8426,4082z M5660,4107
		c0-33-2-34-66-67c-16-8-31-17-34-20c-7-7-47-30-85-48c-16-9-42-23-57-34c-39-27-50-23-46,19c3,32,9,40,47,60c24,12,47,21,51,18
		c4-2,17,6,30,20c12,13,35,27,51,30c15,4,33,13,40,22c12,14,44,31,62,32C5657,4140,5660,4125,5660,4107z M5920,4128
		c4-109-6-394-14-407c-6-9-32-7-61,4c-42,15-71,23-90,24c-46,2-60,7-67,21c-4,8-7,69-6,135c0,109,2,122,22,141c11,12,32,25,44,29
		l24,7l-7-156c-6-116-5-156,4-156c17,0,19,12,25,173c2,82,6,150,8,151s21,11,43,23C5890,4142,5920,4146,5920,4128z M7070,4125
		c35-18,46-61,36-138c-3-29-9-129-12-223c-6-158-6-171,11-178c26-10,30-1,17,43c-13,43-16,134-4,145c7,7,9,54,11,229
		c1,75,2,77,26,77c14,0,25-4,25-8s14-13,31-19l31-12l-6-93c-3-51-8-136-11-188c-9-189-16-230-34-230c-9,0-22,5-29,12
		c-6,6-39,12-73,13c-75,2-94,20-84,75c10,47,19,239,24,483C7030,4144,7032,4145,7070,4125z M5060,4105c0-14-4-25-10-25
		c-5,0-10,11-10,25s5,25,10,25C5056,4130,5060,4119,5060,4105z M7535,4120c8-13-15-13-35,0c-12,8-11,10,7,10
		C7519,4130,7532,4126,7535,4120z M4586,4091c-4-6-14-11-22-11c-12,0-13,4-3,21c7,14,14,18,21,11C4588,4106,4589,4097,4586,4091z
		 M7620,4110c0-5-4-10-10-10c-5,0-10,5-10,10c0,6,5,10,10,10C7616,4120,7620,4116,7620,4110z M9447,4075l49-44l-4-63
		c-3-35-11-73-19-84l-14-22l-49,24c-40,19-50,29-50,48c0,14-4,28-10,31c-5,3-10-3-10-14c0-25-13-27-30-6c-9,11-8,22,6,54
		c19,43,38,46,28,5c-4-14-2-24,5-24c6,0,11,19,11,45c0,44,16,95,31,95C9395,4120,9420,4100,9447,4075z M4520,4020c0-44-2-80-5-80
		s-14,21-26,48c-11,26-25,54-29,63c-10,20-3,29,22,29c10,0,18,5,18,10c0,6,5,10,10,10C4516,4100,4520,4067,4520,4020z M8866,4073
		c3-10,12-32,20-49c14-28,14-34-10-88c-14-31-28-72-32-91c-3-19-11-35-17-35s-8,24-4,68c4,37,7,100,7,140c0,58,3,72,15,72
		C8854,4090,8863,4082,8866,4073z M920,4007c64-12,121-30,127-41c10-14,5-171-16-626c-14-277-41-897-42-945c0-22-3-35-5-29
		c-5,12-41,203-49,264c-3,19-8,49-11,65c-2,17-23,138-45,269c-36,220-206,1001-229,1054c-7,16-18,22-40,22c-20,0-29,4-24,11
		c3,6,17,9,30,6c15-3,24,0,24,9s34,4,128-21C838,4026,906,4009,920,4007z M8096,4064c21-10,34-24,34-35c0-18-1-18-34,2
		c-18,10-41,17-50,13c-18-7-19-4-10,20C8044,4084,8054,4084,8096,4064z M4040,4028c23-50,27-79,8-60c-11,11-38,78-38,95
		C4010,4081,4023,4066,4040,4028z M7980,4046c0-19-31-29-64-20c-25,6-32,15-21,25c2,3,23,6,45,7C7970,4060,7980,4057,7980,4046z
		 M7807,4044c-3-3-12-4-19-1c-8,3-5,6,6,6C7805,4050,7811,4047,7807,4044z M4917,3982c3-43-7-92-18-92c-6,0-8,9-4,20s1,36-5,56
		c-14,41-6,74,13,55C4910,4014,4916,3997,4917,3982z M8801,3933c-2-104-9-122-35-94c-11,12-15,25-10,33c5,7,9,29,9,48
		c1,39,24,114,32,106C8800,4023,8802,3981,8801,3933z M5107,4006c4-3,0-6-9-6c-8,0-23-9-33-20c-25-28-35-25-35,11c0,29,1,30,36,26
		C5085,4014,5104,4009,5107,4006z M5660,3889v-119l-47,4c-27,2-53,4-60,5c-8,1-10,24-7,74c4,82-10,65-21-26l-7-57l-77,6
		c-42,3-94,9-115,14c-22,5-43,7-47,4c-4-2-10,0-13,5c-6,9,56,51,74,51c5,0,12-9,15-20c9-28,28-13,22,16c-3,18,3,30,23,44
		c16,11,32,20,37,20c4,0,25,11,45,25s46,25,56,25c11,0,26,7,33,17c16,19,70,43,81,37C5657,4011,5660,3955,5660,3889z M8185,4010
		c3-5,1-10-4-10c-6,0-11,5-11,10c0,6,2,10,4,10C8177,4020,8182,4016,8185,4010z M7638,3973c3-21-1-23-36-23c-27,0-45,7-60,23
		c-12,13-20,26-18,28c3,3,29,2,58-1C7627,3996,7635,3992,7638,3973z M4589,3978c11-31,2-60-18-56c-22,4-27,78-5,78
		C4574,4000,4584,3990,4589,3978z M4744,3963c36-33,37-36,20-47c-11-6-44-11-74-11c-53,0-55,1-61,30C4616,4009,4678,4025,4744,3963z
		 M4815,3970c19-37,19-40-3-40c-14,0-18,8-19,35C4792,4008,4795,4008,4815,3970z M7332,3973c12-11,15-27,12-64c-3-30,0-49,6-49
		c5,0,10,20,10,45c0,52,11,56,54,22l29-23l-3-110c-1-60-3-122-5-139c-1-16-3-63-4-102l-1-72l-32,6c-18,3-37,11-41,17s-6,87-3,179
		c3,139,2,166-9,157c-10-8-14-45-14-138c-1-70-4-142-7-159c-6-32-26-44-39-22c-4,6-13,8-21,5c-10-4-14,4-15,32c-1,49,3,306,5,357
		c5,92,4,88,34,80C7303,3992,7323,3982,7332,3973z M7760,3983c0-7-7-13-15-13s-15-4-15-10c0-13-47-13-55,0c-4,6-4,17-1,25
		C7681,4003,7760,4001,7760,3983z M4428,3970c3-8,1-12-3-8c-5,4-14,3-22-4c-17-13-39,4-28,22C4384,3995,4422,3988,4428,3970z
		 M7858,3972c2-7-7-12-22-12c-27,0-35,15-13,23C7840,3990,7853,3986,7858,3972z M7970,3970c0-5-18-10-40-10s-40,5-40,10
		c0,6,18,10,40,10S7970,3976,7970,3970z M9055,3803c-3-150-7-184-19-172c-4,4-8,174-7,286c1,50,4,61,15,57
		C9056,3969,9058,3940,9055,3803z M9619,3869c-1-38-5-72-10-74c-4-3-26,4-48,16c-38,19-41,24-41,63c0,23,9,55,20,74l20,33l30-21
		C9619,3939,9620,3935,9619,3869z M4352,3948c-7-7-12-8-12-2s3,14,7,17c3,4,9,5,12,2C4361,3962,4358,3954,4352,3948z M5350,3925
		c0-27-35-55-92-76c-21-7-38-17-38-21s-11-8-25-8s-25,4-25,8c0,15,54,60,90,75c19,8,43,24,54,35C5336,3963,5350,3958,5350,3925z
		 M8717,3930c2-8-1-21-6-29c-14-21-41,3-34,30C8683,3954,8713,3953,8717,3930z M9104,3867c-4-37-11-67-15-67c-11,0-12,133-2,144
		C9103,3960,9110,3928,9104,3867z M2864,3904c26-10,20-44-8-44c-17,0-25,7-28,25C2823,3911,2833,3916,2864,3904z M9180,3900
		c0-5-4-10-10-10c-5,0-10,5-10,10c0,6,5,10,10,10C9176,3910,9180,3906,9180,3900z M3120,3891c0-5-6-14-14-20c-11-9-16-9-21,0
		c-4,6-1,15,6,20C3109,3902,3120,3902,3120,3891z M3249,3878c31-19,25-27-16-23c-21,1-55,3-75,4c-42,1-50,17-15,30
		C3171,3901,3222,3895,3249,3878z M8130,3882c0-16-42-32-86-32c-38,0-48,25-15,38C8062,3900,8130,3896,8130,3882z M2972,3583
		c-1-256-4-299-17-312c-15-15-16,9-11,277c6,279,11,351,24,337C2972,3882,2974,3746,2972,3583z M3041,3877c-1-12-15-9-19,4
		c-3,6,1,10,8,8C3036,3886,3041,3881,3041,3877z M7502,3868c16-18,19-32,15-69c-5-42-4-46,12-42c13,3,17,11,14,24c-8,30,6,89,22,89
		c9,0,11-7,7-22c-4-17-2-20,11-15c17,6,41-15,29-27c-4-4,0-6,8-4s19-7,24-19c7-15,17-21,27-18c9,3,19-1,22-9s22-20,41-27
		c20-7,36-18,36-25c0-6,8-11,18-10c15,1,17-11,16-116c0-112-7-146-22-121c-4,6-21,14-37,16l-30,4l-2,99c-1,54-2,106-3,113
		c0,10-3,11-9,5c-5-5-12-56-16-114c-3-57-8-106-10-108s-9-1-16,3c-8,6-10,36-5,114c7,102,6,105-10,82c-13-19-15-28-6-42
		c6-10,8-20,3-23s-11-32-15-64l-7-59h-41c-23,0-47,5-53,11c-14,15-13,92,2,107c9,9,9,16,0,30s-9,21,1,31c16,16,15,65-2,71
		c-10,4-15-13-21-76c-5-45-9-102-10-127c-1-32-5-45-16-45c-12,0-14,27-12,165c1,91,3,182,3,203C7470,3896,7475,3898,7502,3868z
		 M7605,3880c3-5,1-10-4-10c-6,0-11,5-11,10c0,6,2,10,4,10C7597,3890,7602,3886,7605,3880z M7841,3880c6,0,8-4,5-9c-8-12-46-2-46,11
		c0,6,7,7,16,4S7836,3880,7841,3880z M7978,3873c-3-14-11-17-43-14c-46,3-58,9-50,22c4,5,26,9,51,9C7974,3890,7981,3887,7978,3873z
		 M2670,3865c0-8-4-15-10-15c-5,0-10,7-10,15s5,15,10,15C2666,3880,2670,3873,2670,3865z M4858,3868c-7-20-68-23-68-4
		c0,12,10,16,36,16C4850,3880,4860,3876,4858,3868z M8233,3862c23-25,6-52-22-35c-11,7-27,10-36,7c-24-10-18,22,8,34
		C8213,3883,8215,3882,8233,3862z M8969,3784c1-66-1-85-11-82c-17,6-26,75-15,113c15,52,16,55,20,55C8966,3870,8968,3831,8969,3784z
		 M3336,3596c-1-162-5-256-11-256s-9,82-8,228c2,125,3,242,3,260s4,31,8,28C3333,3853,3336,3736,3336,3596z M3470,3849
		c0-7,10-9,25-7c14,3,28,1,31-3c8-13-23-22-43-13c-10,4-21,6-25,6c-5-1-8,5-8,13s5,15,10,15C3466,3860,3470,3855,3470,3849z
		 M9270,3824c0-19-5-67-11-105c-6-39-12-85-13-102c-2-18-4-41-5-52l-2-20l-9,20c-10,26,1,263,14,284C9258,3871,9270,3859,9270,3824z
		 M9762,3828c75-61,88-76,88-107c0-16-4-33-10-36c-10-6-72,24-78,38c-2,4-11,7-21,7c-27,0-41,21-41,61c0,37,8,69,17,69
		C9719,3860,9740,3845,9762,3828z M3430,3840c0-5-4-10-10-10c-5,0-10,5-10,10c0,6,5,10,10,10C3426,3850,3430,3846,3430,3840z
		 M8316,3825c20-15,13-18-23-9c-13,4-23,10-23,15C8270,3845,8294,3842,8316,3825z M8882,3805c-2-14-9-25-14-25c-6,0-7,7-4,16
		s6,22,6,30c0,9,4,13,9,10C8883,3833,8885,3819,8882,3805z M3746,3794c2-41-7-75-17-68c-15,9-11,106,4,102
		C3739,3825,3746,3810,3746,3794z M7850,3790c4-30,0-40-19-40c-21,0-34,53-17,70C7826,3832,7847,3814,7850,3790z M9351,3818
		c23-12,24-16,16-76c-9-67-30-77-26-11c2,21,0,41-4,45c-7,7-8-8-11-126c-2-48-10-70-28-70c-7,0-8,18-4,53c4,28,9,80,11,115
		c4,57,10,82,19,82C9326,3830,9338,3824,9351,3818z M7914,3814c20-8,9-34-15-34c-18,0-26,20-12,33C7895,3821,7895,3821,7914,3814z
		 M3390,3790c0-5-5-10-11-10c-5,0-7,5-4,10c3,6,8,10,11,10C3388,3800,3390,3796,3390,3790z M8098,3794c39-11,24-21-33-23
		c-51-1-65,6-48,22C8025,3802,8067,3802,8098,3794z M7760,3769c0-6-4-7-10-4c-5,3-10,11-10,16c0,6,5,7,10,4
		C7756,3782,7760,3774,7760,3769z M8215,3780c-3-5-17-10-31-10c-13,0-24,5-24,10c0,6,14,10,31,10S8219,3786,8215,3780z M2792,3719
		c7-31,9-239,2-239c-4,0-34,62-34,72c0,5-9,28-20,50c-11,23-20,46-20,50c0,5-9,28-20,50c-33,69-29,77,32,63
		C2780,3755,2785,3751,2792,3719z M4479,3745c39-40,38-48-5-37c-16,5-41,7-56,6c-16-2-28,1-28,6c0,4-10,8-22,7c-13,0-46,3-75,7
		c-44,7-53,5-62-11c-10-17-10-17-11,3c0,29,14,33,100,31c48-2,75,2,82,10C4420,3789,4443,3782,4479,3745z M9170,3773c0-5-5-15-10-23
		c-8-12-10-11-10,8c0,12,5,22,10,22C9166,3780,9170,3777,9170,3773z M2874,3745c3-9,5-70,5-137c0-144-17-149-24-7
		c-3,52-8,104-10,117C2836,3755,2861,3778,2874,3745z M3092,3660c25-52,56-115,67-140l21-45l-30-25c-17-14-30-31-30-37
		c0-7-6-13-12-13c-7,0-32-19-56-41c-24-23-45-40-47-38c-7,8-7,37-6,237l1,203l22-3C3040,3756,3056,3733,3092,3660z M3278,3612
		c-3-118-11-139-35-92c-49,98-62,136-56,177c5,39,7,42,33,37c20-5,29-1,34,13C3271,3789,3282,3728,3278,3612z M4173,3743
		c3-10,4-101,2-203s-4-208-4-236c0-34-5-55-16-64c-15-12-16,10-13,253c2,197,6,267,15,267C4163,3760,4171,3752,4173,3743z
		 M4700,3754c0-3-10-23-22-44c-34-59-84-54-62,5C4625,3736,4700,3772,4700,3754z M9469,3746c9-10,9-30,1-77c-6-35-13-73-14-84
		c-5-32-7-32-20,5c-8,22-20,36-33,38c-18,3-20,7-13,31c8,30,51,101,61,101C9455,3760,9463,3754,9469,3746z M10042,3733
		c18-16,25-43,10-43c-19,0-59,25-77,48l-18,25l33-7C10009,3753,10032,3742,10042,3733z M3126,3713c8-21,21-51,29-68
		c66-147,72-165,58-165c-5,0-21,31-37,68c-17,37-42,94-58,126c-31,65-33,76-17,76C3106,3750,3118,3733,3126,3713z M3450,3701
		c45-2,69-24,51-45c-7-8-23-18-34-22c-12-4-33-15-46-25c-45-35-56-26-54,43c3,114,0,106,26,77C3408,3711,3426,3702,3450,3701z
		 M9100,3663c0-34-4-64-9-68c-15-9-17,5-13,84C9083,3769,9100,3756,9100,3663z M2607,3708c-3-8-6-5-6,6c-1,11,2,17,5,13
		C2609,3724,2610,3715,2607,3708z M9544,3724c11-4,16-19,16-50c0-46-26-124-41-124c-10,0-12,139-3,164
		C9523,3732,9523,3732,9544,3724z M2695,3648c8-16,11-28,6-28c-10,0-50,88-42,95c3,4,9-4,14-17S2688,3663,2695,3648z M8119,3704
		c3-2-3-12-12-21c-13-13-19-14-31-3c-9,7-16,9-16,4c0-4-5-3-12,4s-20,12-31,12c-10,0-16,4-13,9C8010,3718,8110,3713,8119,3704z
		 M4110,3659c0-21-4-39-8-39c-5,0-9,20-10,45c0,25,4,43,9,39C4106,3701,4110,3681,4110,3659z M4582,3683c5-38-1-63-15-63
		c-8,0-12,16-12,45C4555,3715,4575,3728,4582,3683z M7960,3698c0-5-2-8-5-8s-21,0-40,0s-35,4-35,8s18,8,40,7
		C7942,3705,7960,3702,7960,3698z M8247,3695c6-21-14-31-54-27c-34,3-43,8-43,23c0,17,6,19,47,16C8223,3706,8245,3700,8247,3695z
		 M8320,3702c0-10-41-35-47-28c-11,11,7,36,27,36C8311,3710,8320,3707,8320,3702z M8504,3690c5-5,6-20,2-34c-6-24-10-25-57-22
		c-58,4-67,10-53,34C8419,3705,8475,3716,8504,3690z M8640,3668c0-47-13-78-24-59c-4,6-22,11-41,11c-25,0-35,5-40,20
		c-12,37,2,56,42,58c21,2,39,5,42,7C8632,3719,8640,3705,8640,3668z M9974,3679c20-12,36-26,36-32c0-7-4-7-12,1c-7,7-27,12-45,12
		c-26,0-33,4-33,20C9920,3705,9930,3705,9974,3679z M3853,3659c34-5,72-11,85-13c23-3,38-13,31-20c-2-2-22-1-44,3s-60,4-85,0
		c-35-6-48-4-57,9c-16,19-17,46-3,37C3786,3671,3819,3664,3853,3659z M8709,3656l22-23l-23-7c-41-10-48-7-48,24
		C8660,3687,8678,3689,8709,3656z M10120,3670c0-5-7-10-15-10s-15,5-15,10c0,6,7,10,15,10S10120,3676,10120,3670z M2619,3458
		c1-27-3-48-9-48s-9,50-8,133c1,132,1,132,9,47C2615,3543,2618,3484,2619,3458z M3740,3626c0-49-15-52-17-5c-2,21,2,39,7,39
		C3736,3660,3740,3645,3740,3626z M9746,3636c1,0-2-43-6-94c-5-73-10-95-25-106c-13-10-17-21-12-43c7-35-1-73-16-73c-7,0-7,42-2,128
		c4,70,7,134,7,142s1,25,4,38c4,19,9,22,27,16C9735,3641,9746,3637,9746,3636z M4832,3623c10-9,18-22,18-28c0-13-28-30-44-26
		c-14,3-36-21-36-40c0-11-5-19-11-19s-49-34-95-75s-92-75-102-75c-20-1-67-38-75-62c-5-15-41-40-79-54c-10-3-18-12-18-19
		s-16-26-35-42c-19-17-35-34-35-39s-20-22-45-39c-24-16-47-40-50-53c-4-17-10-22-25-17c-14,4-19,0-22-17c-2-17-9-22-26-20
		c-18,1-26-5-35-28c-6-16-17-30-24-30c-6,0-14-8-17-18c-3-9-16-22-28-27c-13-6-24-16-24-22c-1-7-2-17-3-21c0-4-23-21-51-37
		c-36-22-48-35-44-47c3-11-6-25-26-39c-16-13-30-30-30-40s-19-27-47-42c-40-21-48-30-46-51c1-22-2-26-27-26c-15,0-30-7-34-15
		c-3-8-15-15-27-15c-18,0-15,7,25,51c25,28,46,55,46,59c0,15,89,112,119,131c17,10,31,25,31,32c0,20,232,257,251,257
		c18,0,37,19,54,54c6,11,23,27,38,34s27,20,27,28c0,7,4,14,8,14s32,23,62,50c30,28,55,50,57,50c1,0,21,18,45,40s53,43,66,46
		c12,3,22,12,22,20s5,14,10,14c15,0,100,81,100,95c0,7,26,32,58,56c31,24,63,49,70,56C4796,3644,4810,3643,4832,3623z M7849,3559
		c-1-38-6-69-11-69c-4,0-8,34-6,75c1,40,5,72,10,69S7850,3597,7849,3559z M7932,3597c25-20,26-27,25-92c-2-64-4-70-24-73
		c-12-2-31,2-43,8c-17,9-20,20-19,69c1,32-2,64-6,70c-8,13,12,41,29,41C7900,3619,7917,3609,7932,3597z M2739,3537
		c17-37,27-67,23-67s-14,15-21,33c-20,46-41,101-41,106C2700,3620,2711,3599,2739,3537z M8240,3584c0-23-3-25-37-22
		c-62,5-42,42,25,47C8235,3610,8240,3599,8240,3584z M8362,3592c14-14-7-30-42-33c-45-4-60,5-53,32c5,19,11,20,47,15
		C8337,3602,8358,3596,8362,3592z M8750,3600c0-5-4-10-10-10c-5,0-10,5-10,10c0,6,5,10,10,10C8746,3610,8750,3606,8750,3600z
		 M9146,3580c-1-17-7-30-13-30c-14,0-17,19-7,44C9136,3620,9147,3612,9146,3580z M9814,3576c-3-14-10-26-15-26c-11,0-11,3,1,36
		C9813,3619,9823,3612,9814,3576z M60,3596c0-3-4-8-10-11c-5-3-10-1-10,4c0,6,5,11,10,11C56,3600,60,3598,60,3596z M8484,3584
		c34-13,14-25-36-22c-63,4-80,28-20,28C8450,3590,8475,3587,8484,3584z M10132,3575c0-5-5-11-11-13s-11,4-11,13s5,15,11,13
		S10132,3580,10132,3575z M8550,3570c0-5-2-10-4-10c-3,0-8,5-11,10c-3,6-1,10,4,10C8545,3580,8550,3576,8550,3570z M9945,3560
		c3-5,6-59,7-119c0-87-4-118-18-150c-11-22-22-41-26-41c-8,0,3,299,11,318C9922,3574,9939,3569,9945,3560z M3744,3451
		c1-50-4-102-11-118c-10-24-12-9-13,102c0,96,3,126,11,118C3738,3546,3743,3504,3744,3451z M9615,3435c-5-49-8-128-9-174
		c-1-58-5-86-13-88c-7-3-16,4-19,14s-10,26-15,35c-15,29-10,114,13,230c20,97,24,107,36,91C9619,3529,9620,3505,9615,3435z
		 M3800,3524c0-8-4-14-10-14c-5,0-10,9-10,21c0,11,5,17,10,14C3796,3542,3800,3532,3800,3524z M4111,3523c6-44-2-193-10-193
		c-4,0-30,17-58,38s-68,47-89,57c-22,11-41,23-42,28c-2,4-20,14-39,22c-23,10-33,20-31,31c2,13,18,17,83,20c98,4,155,10,162,18
		C4100,3556,4108,3549,4111,3523z M4450,3544c0-12-69-74-83-74c-7,0-18-5-24-11c-12-12-48,54-40,75C4308,3548,4450,3557,4450,3544z
		 M9850,3527c0-20-17-40-29-33c-7,5-7,14,1,31C9833,3549,9850,3550,9850,3527z M4275,3484c31-64,30-80-7-107c-45-33-58-18-58,66
		c0,67,10,97,31,97C4245,3540,4260,3515,4275,3484z M8039,3495c3,0,21-7,39-15c26-12,32-21,32-46c0-31-1-31-42-27c-24,2-55,4-70,4
		c-28,0-37,12-18,24c6,3,10,30,10,58l1,52l20-25C8023,3506,8035,3495,8039,3495z M10030,3523c-1-10-7-29-14-42c-12-22-13-21-13,18
		c0,28,4,41,14,41C10024,3540,10030,3532,10030,3523z M9320,3453c0-72-1-76-17-61c-20,21-22,100-3,122c7,9,14,16,16,16
		S9320,3495,9320,3453z M5310,3510c0-5-4-10-9-10c-6,0-13,5-16,10c-3,6,1,10,9,10C5303,3520,5310,3516,5310,3510z M5364,3499
		c-3-5-10-7-15-3c-5,3-7,10-3,15c3,5,10,7,15,3C5366,3511,5368,3504,5364,3499z M10130,3507c0-7-7-22-15-33c-14-18-14-17-15,14
		c0,22,5,32,15,32C10123,3520,10130,3514,10130,3507z M9536,3488c-4-13-11-66-16-118c-14-147-21-185-32-166c-5,9-7,24-4,34
		c3,9,8,64,12,122c3,57,10,115,15,127C9522,3517,9545,3518,9536,3488z M10490,3500c0-5-4-10-10-10c-5,0-10,5-10,10c0,6,5,10,10,10
		C10486,3510,10490,3506,10490,3500z M5457,3494c-3-3-12-4-19-1c-8,3-5,6,6,6C5455,3500,5461,3497,5457,3494z M10176,3260
		c-10-73-22-60-20,22c4,219,16,282,24,133C10183,3366,10181,3296,10176,3260z M2724,3407c19-40,38-85,41-99c4-14,17-47,30-73l23-49
		l-27-20c-14-11-41-35-59-54s-34-33-36-31c-5,5-13,399-9,399C2689,3480,2706,3447,2724,3407z M3525,3464c28-10,65-23,83-31
		s43-13,55-11c20,3,22-2,25-43c3-46,3-47-32-53c-19-4-75-4-123,0c-48,3-104,7-123,8c-34,1-35,3-38,42c-3,36,1,43,25,59
		c15,10,34,25,41,32C3455,3484,3465,3483,3525,3464z M8198,3432c8-24,11-46,7-50s-10-1-12,6c-3,6-11,12-19,12c-18,0-39,44-30,65
		C8155,3494,8183,3477,8198,3432z M8598,3474c34-10,26-21-13-19c-42,1-74,25-34,25C8564,3480,8585,3477,8598,3474z M8753,3472
		c10-1,17-10,17-22c0-16-7-19-37-18c-42,1-92,26-75,37C8668,3475,8708,3476,8753,3472z M8942,3446c4-27-18-31-25-5s1,45,13,32
		C8935,3469,8940,3456,8942,3446z M10294,3458c-3-13-14-36-23-53l-16-30l-3,29c-6,46,6,76,29,76C10297,3480,10300,3476,10294,3458z
		 M10340,3352c-12-26-25-56-30-67s-17-40-29-65c-11-25-23-57-27-73c-3-15-10-30-16-33c-16-10,0,115,22,164c12,26,33,76,47,112
		c37,93,47,103,51,51C10360,3413,10354,3383,10340,3352z M2878,3337c-3-33-5-38-12-22c-4,11-16,36-26,55c-29,57-35,84-17,77
		c8-3,23,0,34,8c17,13,18,10,21-31C2880,3399,2880,3360,2878,3337z M8881,3453c20-20-2-41-39-39c-35,2-48,15-39,39
		C8809,3468,8867,3467,8881,3453z M10630,3460c0-5-7-10-15-10s-15,5-15,10c0,6,7,10,15,10S10630,3466,10630,3460z M4844,3451
		c4-5,28-7,55-4c27,2,52,0,55-5c3-6,24-8,46-5s40,2,40-3s39-9,88-9c77,0,190-8,262-20c14-3,45-7,70-10c133-15,238-27,260-29
		c14-2,27-4,30-5s32-4,65-6c233-13,280-17,289-23c6-4,20-7,31-8c53-2,174-17,205-24c36-9,151-21,231-25c25-1,52-6,60-10
		c8-5,48-10,90-11s81-4,86-7c4-3,65-8,133-12c69-4,130-11,136-16s55-12,110-15c54-3,104-10,109-14c6-5,36-11,66-14c30-2,88-7,129-11
		c41-3,100-8,130-10s84-10,119-18c35-9,70-13,77-10c6,2,15,0,19-6c11-19-46-33-95-24c-26,5-59,6-75,1c-27-8-60-14-92-17
		c-7,0-10-8-7-16c4-9,16-14,28-13c11,1,51-1,88-5c57-7,73-5,113,13c25,11,48,27,51,35c8,20,37,27,67,16c15-6,66-13,114-16
		c49-3,102-10,118-15c17-5,64-12,105-16c116-10,333-85,346-119c3-7,33-27,67-44c86-41,362-309,352-341c-9-28,12-55,32-39
		c11,9,22,3,55-32c22-24,52-60,67-79c14-19,50-61,80-93c63-67,101-120,101-140c0-8,6-17,14-20s21-19,29-36c14-28,14-30-6-28
		c-11,1-22,10-25,19c-2,10-16,21-30,25c-14,3-185,3-380-1c-276-6-363-10-390-22c-19-8-43-12-52-9c-19,6-71-18-90-40
		c-7-8-20-15-30-15s-20-7-24-15c-3-8-12-12-19-9c-8,3-35-9-61-26c-25-17-56-32-68-33c-13-1-31-9-41-18s-37-22-60-29
		c-23-8-47-17-53-21c-5-5-20-6-32-2c-16,4-22,1-22-11s-6-15-25-10c-18,4-27,1-31-10c-3-9-13-16-21-16c-7,0-32-9-54-19
		c-22-11-66-25-97-31c-51-10-151-44-177-60c-5-4-37-8-70-9s-75-4-92-5l-33-3v58c0,32,5,61,10,64c6,3,10-3,10-13c0-22,26-37,35-22
		c4,6,3,30-1,55c-5,35-10,45-25,45c-14,0-19,7-19,26c0,21-4,25-22,22c-19-2-23-9-21-34c2-19-4-37-12-44c-17-14-20-46-5-55
		c6-3,10-28,10-55c0-38-4-50-17-54c-22-6-133-18-193-20l-45-1l-3,58c-2,36,2,64,9,73c9,11,9,18,1,26c-16,16-15,61,0,76
		c9,9,9,15,0,24c-7,7-12,16-12,20c0,5,14-7,31-27c34-38,86-58,139-53c24,2,36,9,38,21c3,14-4,17-41,17c-24,0-57,7-73,15
		c-28,13-74,58-74,70c0,3-8,15-19,26c-10,11-21,33-25,49c-7,36-41,57-62,39c-18-15-18-35,1-43c12-4,13-11,4-33c-6-15-15-109-19-207
		c-7-127-13-182-22-188c-12-7-28-9-98-13c-14-1-34-6-45-11c-32-14-249-11-268,4c-9,8-25,10-40,7c-14-4-35-2-46,5c-14,7-21,7-21,0
		c0-15-21-12-41,6c-11,9-23,13-31,8c-7-4-40-9-73-10s-60-3-60-4s-27-3-60-4s-65-5-71-9c-7-4-15,0-18,9c-3,8-10,13-16,9
		c-10-6-126-33-174-41c-48-7-175-40-211-54c-18-8-50-15-100-24c-11-1-36-7-55-11c-19-5-42-9-50-10s-26-7-40-12s-52-11-84-12
		c-33-1-67-6-77-12c-10-5-33-9-53-9c-19,0-38-5-41-10c-4-6-15-8-26-5c-10,4-19,2-19-3s-27-9-60-7c-33,1-62,0-65-4c-2-4-59-6-127-6
		c-68,1-127-1-133-5c-5-4-17-8-25-8c-8-1-35-6-60-12c-43-11-112-14-230-11c-30,1-71,0-90-3c-63-9-126-10-139-2c-6,4-18,3-26-4
		c-10-8-15-8-20,0c-4,6-14,8-24,4c-19-8-113-29-226-50c-65-13-85-21-105-44c-16-18-42-33-70-39c-47-10-60-4-60,32c0,20-20,57-38,72
		c-12,10-38,93-47,152c-2,13-6,42-10,64c-5,26-3,44,3,48c18,11-11,56-38,59c-13,2-35,13-49,23c-13,10-38,19-56,19s-37,6-43,13
		c-16,19-80,9-93-15c-6-12-8-56-5-116c14-232,14-238-18-271c-19-20-40-31-58-31c-17,0-31-7-38-20c-6-11-17-20-26-20
		c-25,0-37-49-24-100c6-24,16-50,22-57s7-20,4-29c-4-11-2-15,7-11c7,3,20-8,29-24c16-27,16-29-3-39c-29-16-52-56-44-80
		c3-11,17-26,31-33c21-11,14-12-61-11c-56,0-90,6-101,15c-16,12-17,12-11-3c3-10,3-19-1-19c-45-8-60-10-77-10c-30-1-132,7-213,16
		c-66,7-73,10-78,32c-4,16-2,28,7,34c22,13,26,11,39-21c12-30,35-40,42-18c2,6-2,48-9,92c-7,45-10,96-7,114c6,33-3,41-25,20
		c-10-11-10-8-2,14c5,14,7,52,4,84c-4,38-3,55,4,51c6-4,18,2,28,13s15,20,11,20s-2,9,4,20s17,20,25,20s15,6,15,13c1,6,14,28,30,47
		c17,19,30,40,30,48s20,38,45,66c25,29,45,60,45,68s12,25,26,39c15,13,42,56,60,96c36,76,80,130,211,259c45,45,85,93,88,107
		c4,15,13,31,21,38c8,6,14,17,14,25c0,7,22,40,49,72c28,33,47,63,44,66c-8,7,53,66,68,66c5,0,9,5,9,12c0,6,11,26,25,44s25,37,25,43
		s7,11,16,11s18,9,21,19c3,11,11,22,19,25c17,6,20-49,4-59c-7-5-8-11-1-18c6-9-6-29-40-66c-27-29-49-58-49-64c0-5-26-37-57-71
		c-32-34-74-83-93-109c-19-27-52-69-72-95c-21-26-38-51-38-56s-22-35-48-65c-27-31-66-81-88-111c-21-30-54-75-74-100
		c-19-25-40-52-45-61c-6-9-23-36-39-60c-67-100-76-116-76-125c0-6-13-28-30-50c-16-21-30-44-30-50s-11-21-25-34c-26-25-55-74-55-95
		c0-7-9-22-20-35s-20-29-20-37c0-21,26-15,38,10c25,48,52,90,70,111c22,25,100,144,131,201c55,100,242,364,290,409
		c17,17,31,36,31,43s5,13,11,13c5,0,16,15,24,33c7,18,23,41,35,52c11,10,27,33,35,49c8,17,31,49,50,70c19,22,35,42,35,45
		s22,31,49,61c28,30,56,66,63,80c7,13,30,41,51,61c20,20,37,40,37,44c0,3,46,53,101,110c56,57,113,119,128,136c14,18,51,59,81,92
		c30,32,57,63,58,68c2,5,10,9,17,9c8,0,16,8,19,18c3,9,16,22,28,27c13,6,28,21,35,35s13,21,13,15c0-5,18,9,40,30s40,45,40,52
		s6,13,13,13s57,45,112,99c54,55,110,105,124,112c14,8,41,28,59,46s36,33,40,33s27,20,52,45c25,24,50,44,56,45c6,0,17,7,24,15
		C4764,3461,4835,3466,4844,3451z M10440,3342c0-180-14-209-20-42c-6,150-5,164,11,155C10436,3451,10440,3401,10440,3342z
		 M8446,3429c37-10,45-15,42-33c-2-17-11-22-44-24c-46-3-66,12-57,46C8393,3444,8389,3443,8446,3429z M3267,3404c-9-9-28,6-21,18
		c4,6,10,6,17-1C3269,3415,3271,3408,3267,3404z M3804,3389c16-41,16-42-5-65c-12-13-26-21-30-18c-16,10-6,124,11,124
		C3784,3430,3795,3411,3804,3389z M8368,3402c4-25-13-30-22-6c-9,25-7,36,7,32C8359,3425,8366,3414,8368,3402z M8619,3404
		c27-9-9-32-48-30c-45,1-56,9-48,31c5,11,16,14,44,10C8588,3411,8611,3407,8619,3404z M10135,3253c-7-158-12-182-37-183
		c-11,0,2,311,13,333c6,9,15,17,21,17C10139,3420,10140,3371,10135,3253z M3853,3383c8-16,28-53,46-83c33-60,36-70,20-70
		c-5,0-19,21-31,48c-11,26-26,54-32,62c-19,24-36,70-27,70C3834,3410,3845,3398,3853,3383z M10014,3265c-9-19-19-35-23-35
		c-12,0,5,134,20,160c13,24,14,23,17-32C10030,3319,10025,3288,10014,3265z M9398,3324c-14-14-15-11-16,33v48l16-33
		C9412,3343,9412,3338,9398,3324z M8755,3380c4-6-13-10-44-10c-28,0-51,5-51,10c0,6,20,10,44,10C8729,3390,8752,3386,8755,3380z
		 M10720,3355c0-8-4-15-10-15c-5,0-10,7-10,15s5,15,10,15C10716,3370,10720,3363,10720,3355z M2830,3304c13-25,29-48,36-51
		c9-3,14-21,14-50c0-51-13-50-36,5c-17,39-44,122-44,135C2800,3360,2809,3347,2830,3304z M9789,3248c1-41,5-59,17-66
		c23-13,10-72-16-72c-10,0-22,5-26,12c-10,15-8,155,2,199c7,33,8,33,15,9C9785,3316,9788,3279,9789,3248z M3250,3309c0-5-9-9-20-9
		c-22,0-27,16-7,23C3238,3328,3250,3322,3250,3309z M8613,3323c-7-2-21-2-30,0c-10,3-4,5,12,5C8612,3328,8619,3326,8613,3323z
		 M8675,3310c3-5,2-10-4-10c-5,0-13,5-16,10c-3,6-2,10,4,10C8664,3320,8672,3316,8675,3310z M8740,3310c0-5-4-10-10-10
		c-5,0-10,5-10,10c0,6,5,10,10,10C8736,3320,8740,3316,8740,3310z M8878,3303c2-9-7-13-27-13c-21,0-31,5-31,16
		C8820,3325,8871,3322,8878,3303z M9127,3300c8,0,13-6,10-12c-2-7-12-12-21-12c-9,1-16-2-16-7s-4-9-10-9c-15,0-12,48,3,53
		c6,2,14,0,15-4C9110,3304,9118,3300,9127,3300z M8935,3300c-3-5-10-10-16-10c-5,0-9,5-9,10c0,6,7,10,16,10
		C8934,3310,8938,3306,8935,3300z M9040,3285c0-10-10-15-32-15c-31,1-32,1-14,15C9019,3304,9040,3304,9040,3285z M9415,3290
		c3-5,1-10-4-10c-6,0-11,5-11,10c0,6,2,10,4,10C9407,3300,9412,3296,9415,3290z M9712,3218c-2-40-5-74-7-76c-1-1-10,0-19,4
		c-9,3-16,17-16,32c0,27,31,112,40,112C9713,3290,9714,3257,9712,3218z M10359,3193c-1-54-4-111-8-128c-6-28-9-30-56-30
		c-48,0-50,1-47,26c1,14,16,54,32,88c17,34,30,63,30,65c0,15,32,76,40,76C10356,3290,10360,3251,10359,3193z M3333,3250
		c3-11,1-18-4-14c-5,3-9,12-9,20C3320,3276,3327,3273,3333,3250z M10630,3248c0-33-92-248-106-248c-6,0-18-8-25-17c-10-11-10-14-1-9
		c8,5,12,0,12-16c0-17-6-23-25-24c-30-2-30-1-2,53c58,111,127,258,127,272c0,6,5,11,10,11C10626,3270,10630,3260,10630,3248z
		 M3737,3224c-7-51-17-54-17-6c0,24,5,42,11,42S3740,3246,3737,3224z M9162,3238c-9-9-15-9-24,0s-7,12,12,12S9171,3247,9162,3238z
		 M3820,3229c0-5-4-7-10-4c-5,3-10,1-10-4c0-6-9-11-20-11c-20,0-26,11-13,23C3777,3244,3820,3241,3820,3229z M3520,3218
		c8,0,48,3,88,7c51,4,72,3,67-4c-3-6-19-11-35-11s-31-4-34-9s-35-14-71-21s-65-16-65-21c0-14-40-10-56,5c-8,8-18,26-24,41l-10,26
		l63-6C3477,3221,3512,3218,3520,3218z M3274,3166c-2-27-5-51-7-52c-2-2-25,16-52,41c-47,43-48,45-26,53c12,4,37,8,55,8h33
		L3274,3166z M10023,3168c-8-129-42-134-43-6c0,45,2,49,41,57C10024,3219,10025,3196,10023,3168z M10526,3183c-11-11-19,6-11,24
		c8,17,8,17,12,0C10530,3197,10529,3186,10526,3183z M4100,3205c0-6-73-74-81-75c-12,0-31,49-26,64c5,12,20,16,57,16
		C4077,3210,4100,3208,4100,3205z M3333,2967c3-125,1-230-4-233s-9,5-10,18c0,13-1,117-3,231c-2,185,0,224,10,214
		C3328,3196,3331,3092,3333,2967z M9919,3094c-6-7-15-12-19-9c-7,4-6,18,4,80c1,6,6,17,11,25c7,11,11,2,13-33
		C9930,3130,9926,3102,9919,3094z M3062,3174c7-9,30-35,51-57c20-21,37-43,37-47c0-10-54-35-103-48c-44-12-43-15-51,80
		c-4,57-2,69,12,77C3033,3194,3047,3192,3062,3174z M3990,3091c0-12-5-10-20,9c-11,14-20,40-20,60v35l20-44
		C3981,3127,3990,3100,3990,3091z M2970,3106c0-29-5-57-10-62c-8-8-7-19,1-37c12-27,7-57-11-57c-6,0-10,43-10,116
		c0,102,2,115,15,104C2965,3162,2970,3140,2970,3106z M3400,3093c0-13-3-13-15-3c-8,7-15,27-15,44v31l15-29
		C3393,3121,3400,3101,3400,3093z M3930,3104c25-44,21-60-23-79c-18-8-57-35-86-61c-32-29-55-43-59-37c-12,19-2,175,11,170
		c7-2,26,3,42,11c17,8,44,19,60,23c17,4,31,7,32,8C3907,3140,3918,3124,3930,3104z M10670,3130c0-5-2-10-4-10c-3,0-8,5-11,10
		c-3,6-1,10,4,10C10665,3140,10670,3136,10670,3130z M3740,3026c0-65-10-146-19-146c-5,0-7,178-3,203c1,5,7,5,12,2
		C3736,3082,3740,3055,3740,3026z M10426,3004c-8-21-23-17-29,8c-4,12,1,34,11,51l17,29l3-37C10430,3034,10429,3012,10426,3004z
		 M10480,3081c0-6-4-13-10-16c-5-3-10,1-10,9c0,9,5,16,10,16C10476,3090,10480,3086,10480,3081z M2888,3028c-2-29-7-53-13-53
		c-5,0-14-3-20-7c-5-3-35-9-65-13l-55-7l30,30c17,17,44,46,60,65c17,20,38,36,48,36C2889,3080,2891,3073,2888,3028z M10184,3059
		c-3-5-10-7-15-3c-5,3-7,10-3,15c3,5,10,7,15,3C10186,3071,10188,3064,10184,3059z M3680,2986v-85h-27c-54-1-73-6-94-25
		c-18-15-23-15-30-5c-5,8-9,19-9,25c0,5-11,33-25,62c-13,28-22,58-19,66s28,19,57,25c29,5,61,12,72,14c11,3,32,5,48,6l27,1V2986z
		 M3468,2958c18-39,35-89,38-112c5-39,4-38-30,30c-35,70-76,162-76,170c0,2,8-1,18-7C3427,3033,3450,2997,3468,2958z M3390,2999
		c0-5-4-9-10-9c-5,0-10,7-10,16c0,8,5,12,10,9C3386,3012,3390,3005,3390,2999z M9731,2983c12-12,4-33-11-33c-11,0-40,29-40,41
		S9717,2997,9731,2983z M10630,2950c0-26-3-30-29-30c-43,0-48,27-8,44c18,8,33,15,35,15C10629,2980,10630,2967,10630,2950z
		 M3268,2892c3-64,1-72-19-83c-12-6-41-9-65-6c-30,3-47,0-55-10c-16-19-25-8-47,57l-19,55l91,31c50,17,96,31,101,29
		C3261,2964,3266,2931,3268,2892z M9655,2960c3-5,2-10-4-10c-5,0-13,5-16,10c-3,6-2,10,4,10C9644,2970,9652,2966,9655,2960z
		 M9207,2931c29-6,59-8,67-5s31,1,52-4c22-6,60-13,87-17c26-3,47-9,47-13s-15-17-34-30c-27-18-42-22-70-16c-20,3-39,10-41,15
		c-3,4-27,11-53,15c-26,3-60,12-77,19c-56,23-145,46-155,40c-6-3-10,0-10,7C9020,2957,9098,2952,9207,2931z M3030,2893
		c32-54,137-313,146-357c7-42,46-117,69-136c18-15,21-84,3-78c-14,5-42,49-59,91c-6,16-22,50-35,75c-13,26-24,54-24,62
		c0,9-4,20-9,25c-5,6-18,36-30,69c-20,53-37,94-76,181c-19,43-28,82-20,94C3004,2935,3006,2934,3030,2893z M2958,2890
		c9-14,11-40,6-83c-6-58-10-130-13-219c0-21-6-38-11-38c-7,0-10,61-8,180c2,99,5,180,8,180S2951,2901,2958,2890z M3396,2895
		c4-8,15-15,26-15c12,0,24-12,34-35c18-44,18-45-9-45c-13,0-28-5-35-12c-18-18-51,17-47,50c1,15,3,37,4,50
		C3370,2913,3388,2918,3396,2895z M9995,2881c4-11-3-12-32-7c-21,3-44,6-50,6c-7,0-13,4-13,10C9900,2905,9989,2897,9995,2881z
		 M10100,2860c0-5-4-10-10-10c-5,0-10,5-10,10c0,6,5,10,10,10C10096,2870,10100,2866,10100,2860z M9006,2840c10,0,154-156,151-164
		c-11-32-43-13-120,69c-103,110-107,116-65,104C8990,2844,9005,2840,9006,2840z M9625,2785c19-25,23-35,14-41c-7-4-15-2-17,4
		c-2,7-9,12-15,12c-27,0-87,22-87,31c0,6,14,25,31,42l32,31l8-22C9596,2829,9611,2804,9625,2785z M9831,2823c-9-16-10-14-11,12
		c0,21,3,26,11,18S9839,2837,9831,2823z M2880,2825c0-22-4-24-32-22c-18,2-37,0-43-4c-5-4-23-5-39-2c-27,6-26,7,25,29
		C2862,2857,2880,2857,2880,2825z M3674,2842c9-14-27-37-62-40c-27-2-33,1-30,15c2,12,16,20,38,24c19,4,38,7,42,8
		C3666,2849,3671,2846,3674,2842z M10167,2844c-3-3-12-4-19-1c-8,3-5,6,6,6C10165,2850,10171,2847,10167,2844z M9988,2828
		c8-8,6-17-8-36c-25-31-25-56,0-107c10-22,17-43,14-46c-2-4,3-12,11-19c16-13,20-42,8-53c-7-8-53,32-53,46c0,5-18,31-40,57
		c-39,46-49,70-32,70c5,0,17-9,27-20c26-29,38-10,20,33c-8,20-15,48-15,62c0,21,5,25,28,25C9963,2840,9981,2835,9988,2828z
		 M9775,2820c3-5,1-10-4-10c-6,0-11,5-11,10c0,6,2,10,4,10C9767,2830,9772,2826,9775,2820z M9180,2786c42-14,66-28,68-39
		c2-10-3-17-13-17c-8,0-18-7-21-15c-10-24-26-18-76,32C9066,2817,9073,2823,9180,2786z M10105,2682c-8-124-28-227-40-200
		c-4,10-5,23-2,30c2,7,1,20-3,28c-18,34,22,250,46,250C10109,2790,10109,2741,10105,2682z M9290,2706c0-3-4-8-10-11c-5-3-10-1-10,4
		c0,6,5,11,10,11C9286,2710,9290,2708,9290,2706z M11428,2696c8-5,68-14,132-21c71-7,196-27,235-38c70-19,75-28,69-126
		c-9-169-11-207-12-251c-1-25-6-40-10-35c-4,6-16,10-27,10c-11-1-36,2-55,6s-59,10-89,13c-31,4-59,13-65,22c-8,11-23,14-51,10
		c-22-2-40-5-40-7c0-1-11-3-25-4c-55-6-107-13-142-20c-34-6-36-5-42,22c-3,15-5,77-5,138c0,60-3,151-6,203l-7,93l65-5
		C11390,2704,11423,2699,11428,2696z M3059,2655c14-36,14-39-8-56c-13-11-34-19-47-19c-22,0-24,4-24,50c0,43,3,52,23,60
		C3035,2703,3043,2698,3059,2655z M3385,2690c8-12-5-60-16-60c-5,0-9,16-9,35C3360,2698,3372,2711,3385,2690z M9493,2664
		c42-16,77-32,77-36c0-8-34-11-161-13c-36-1-71-5-77-9c-7-4-12-2-12,5c0,18,72,90,85,86C9410,2695,9450,2680,9493,2664z M2878,2593
		l3-91l-44,5c-31,4-56-1-88-15c-32-15-46-17-51-9c-8,12-11,190-4,198c2,2,44,3,93,3l88-1L2878,2593z M3263,2678c2-7-14-24-36-37
		c-36-21-40-22-55-7c-20,19-10,31,38,44C3257,2692,3258,2692,3263,2678z M10280,2447c-65-140-90-179-90-139c0,12,5,22,11,22
		c8,0,9,15,4,46c-6,41-4,46,14,51c12,3,21,13,21,22s7,30,16,46c9,17,17,38,19,48s17,44,32,75l28,57l3-48
		C10341,2586,10332,2560,10280,2447z M3438,2593c28,10,53,17,56,17c15,0,3-24-24-47c-16-13-30-30-30-37c0-13-57-72-64-65
		c-2,2-7,38-10,79c-7,66-6,73,7,56C3387,2578,3389,2577,3438,2593z M3268,2496c3-39-11-47-28-16c-8,14-7,25,2,39
		C3258,2545,3265,2539,3268,2496z M9718,2526c7-4,2-20-18-50c-45-66-56-73-90-53c-15,9-38,17-49,17c-12,0-21,4-21,9s-23,14-50,21
		c-28,7-53,16-56,21s-14,9-25,9c-10,0-19,5-19,10c0,10,11,11,158,15c45,1,84,4,87,6C9641,2538,9705,2534,9718,2526z M3711,2497
		c-8-8-11-7-11,4c0,20,13,34,18,19C3721,2513,3717,2503,3711,2497z M2953,2453c3-27,4-73,2-103s-4-76-4-102c-1-27-5-48-11-48
		s-10,57-10,150C2930,2496,2942,2548,2953,2453z M10149,2419l-11-22l-14,24c-18,32-17,40,4,37c11-2,18,5,22,22c4,23,5,22,8-7
		C10160,2455,10156,2431,10149,2419z M3145,2438c10-24,33-76,52-117c19-40,32-79,29-86c-5-14-60-27-64-15c-2,4-17,4-35,0
		c-61-15-147-19-148-7c0,7,0,53,1,102c1,103,6,112,85,144c28,11,53,20,56,20C3124,2480,3135,2461,3145,2438z M9905,2379
		c42-63,56-96,38-87c-28,13-66,29-115,49c-32,13-58,25-58,29c0,3,14,28,30,54C9836,2481,9839,2480,9905,2379z M10337,2398
		c-4-40-9-117-13-170c-4-54-10-98-14-98s-19,23-34,50c-26,48-27,53-16,108c7,31,16,65,21,74c5,10,9,25,9,34c0,20,31,74,44,74
		C10339,2470,10340,2439,10337,2398z M9244,2394c3-8,2-12-4-9s-10,10-10,16C9230,2415,9237,2412,9244,2394z M9406,2373
		c15-21,33-45,41-53c50-57,64-82,58-98c-6-14-11-12-33,17c-15,18-48,60-74,92c-27,32-48,63-48,69C9350,2422,9379,2408,9406,2373z
		 M2868,2208c-7-4-41-8-75-8c-55,0-64,3-79,25c-9,13-18,42-21,65c-5,34-3,40,13,40c11,0,28,7,38,15c11,8,29,15,41,15
		c11,0,36,8,55,19l35,18l3-90C2880,2242,2877,2214,2868,2208z M9533,2339c42-15,44-20,21-54l-16-25l-34,43c-35,44-43,62-21,54
		C9489,2355,9512,2347,9533,2339z M10388,2218c5-110-3-198-17-198s-29,82-26,145c2,33,7,91,11,129C10366,2392,10383,2354,10388,2218
		z M9736,2262c5-5,36-17,69-28c99-32,165-67,155-84c-6-10-12-11-22-2c-10,7-18,8-24,2c-10-10-262-16-272-6c-7,8,13,51,44,92
		C9714,2272,9720,2275,9736,2262z M2748,2082c23-49,42-97,41-108c0-17-98,169-99,189C2689,2189,2711,2158,2748,2082z M3009,2096
		c10-12,8-17-8-25c-11-6-22-11-25-11c-5,0-3,28,3,48C2981,2115,2999,2108,3009,2096z M2942,2048c-9-9-12-4-11,23c0,32,1,33,11,11
		C2950,2065,2950,2056,2942,2048z M2871,2048c2-62-1-121-6-126c-4-5-75,136-75,149c0,7,20,12,68,18C2866,2089,2870,2075,2871,2048z
		 M10080,2039c0-11-87-146-99-153c-4-3-27,3-49,14c-23,11-46,20-52,20c-5,0-10,4-10,9s-15,12-32,15c-48,9-123,49-123,66
		c0,15,2,15,183,21c51,1,95,6,97,9C10001,2050,10080,2049,10080,2039z M2735,1981c5-16,3-26-6-32c-25-16-29-10-29,43
		c0,47,1,51,14,33C2721,2014,2731,1994,2735,1981z M2950,1933c0-32-4-64-9-72c-11-18-16-4-15,44c2,71,4,85,14,85
		C2946,1990,2950,1964,2950,1933z M3020,1961c0-5-9-19-20-32l-19-24l-1,27c0,23,10,35,33,37C3017,1970,3020,1966,3020,1961z
		 M10157,1863c-2-61-12-72-42-49c-20,15-20,15,4,60c13,25,27,46,31,46C10155,1920,10157,1894,10157,1863z M10230,1861
		c8-16,28-53,43-81c16-29,25-50,20-48c-4,3-27,13-50,22c-46,20-51,32-45,94C10203,1897,10210,1900,10230,1861z M9774,1842
		c3-9,24-41,46-71c50-68,53-102,5-46c-19,22-35,44-35,49s-11,24-25,42s-25,37-25,43C9740,1875,9767,1861,9774,1842z M2814,1814
		c14-26,26-55,26-65s-22-43-49-73s-52-65-56-77l-8-24l-8,22c-8,22-15,232-8,236c12,8,56,26,66,26C2783,1860,2800,1839,2814,1814z
		 M9642,1815c6-14,15-25,19-25c5,0,21-21,36-47c15-27,31-52,35-58c32-39,68-103,68-120c0-16-5-13-23,14c-12,19-30,46-39,60
		c-10,14-24,41-32,58c-8,18-25,44-38,57c-29,30-60,86-47,86C9626,1840,9636,1829,9642,1815z M9878,1811c34-14,42-40,18-60
		c-11-9-18-6-33,16c-22,32-37,67-26,61C9842,1825,9860,1818,9878,1811z M10083,1704c54-27,67-44,67-86c0-38,0-38-42-40
		c-24-1-60-2-80-4c-29-1-40,3-52,21c-14,21-13,26,9,59C10035,1727,10036,1728,10083,1704z M10240,1615c39-20,38-32-2-31
		c-26,1-34,6-36,24C10198,1634,10202,1635,10240,1615z M10147,1467c13-13,13-47,0-47c-19,1-59,38-52,50
		C10101,1480,10135,1479,10147,1467z M10444,1460c14-13,11-23-19-86c-48-99-54-103-110-65c-25,17-48,31-51,31s-19,9-35,21
		c-24,17-29,27-29,63c0,23,2,45,5,47c2,3,54,5,114,5C10403,1475,10433,1471,10444,1460z M9870,1455c0-8-4-15-10-15c-5,0-10,7-10,15
		s5,15,10,15C9866,1470,9870,1463,9870,1455z M10562,1335c9-26,17-51,16-54c-2-12,16-47,39-75c24-28,63-99,63-112c0-4-8-1-17,8
		c-10,8-29,19-43,26s-34,17-45,24c-97,61-125,80-125,87c0,14,42,104,59,128C10531,1398,10542,1391,10562,1335z M10705,1271
		c-3-2-5,1-5,7s-7,18-16,27s-13,22-9,33c5,13,10,8,20-23C10703,1294,10707,1274,10705,1271z M10109,1284c6-14,11-27,11-30
		c0-12-21,10-35,36c-12,24-13,28-1,24C10091,1311,10102,1298,10109,1284z M9970,1289c0-6-4-7-10-4c-5,3-10,11-10,16c0,6,5,7,10,4
		C9966,1302,9970,1294,9970,1289z M9997,1238c-3-8-6-5-6,6c-1,11,2,17,5,13C9999,1254,10000,1245,9997,1238z M10253,1216
		c20-9,37-21,37-26c0-14-34-70-43-70c-14,0-47,65-47,93c0,16,3,26,8,24C10212,1235,10232,1226,10253,1216z M10011,1147
		c-13-13-26-3-16,12c3,6,11,8,17,5C10018,1160,10018,1154,10011,1147z M10067,1113c11-22,10-28-5-39c-20-15-68-18-76-5
		c-7,11,44,71,59,71C10050,1140,10061,1128,10067,1113z M10452,1082c31-18,62-40,68-47c7-8,20-15,30-15c9,0,25-9,35-20s42-33,71-49
		c29-17,55-35,59-41c4-7-55-10-183-10h-188l-17,35c-23,49-21,66,11,111c16,21,31,47,35,57C10381,1124,10377,1125,10452,1082z
		 M10102,1021c16-19,38-82,38-108c0-23-57-15-74,9c-21,30-20,38,4,38c26,0,25,3-5,36c-19,21-22,29-13,36
		C10072,1044,10084,1042,10102,1021z M10895,983c23,4,29,0,41-29c8-18,14-36,14-39s-22-5-49-5c-46,0-50,2-62,33c-6,17-12,34-13,37
		s-4,10-7,15c-24,40-17,47,15,16C10861,985,10875,979,10895,983z M10300,910c0-5-7-10-16-10c-8,0-12,5-9,10c3,6,10,10,16,10
		C10296,920,10300,916,10300,910z M10580,185c0-8-4-15-10-15c-5,0-10,7-10,15s5,15,10,15C10576,200,10580,193,10580,185z"/>
	<path d="M7629,5111c-12-42-5-67,12-41c16,26,22,61,11,72C7645,5149,7638,5140,7629,5111z"/>
	<path d="M6689,4078c0-2-3-27-6-55c-3-34-1-53,6-53s11,22,11,55c0,30-2,55-5,55S6690,4079,6689,4078z"/>
	<path d="M6680,3950c0-5,5-10,11-10c5,0,7,5,4,10c-3,6-8,10-11,10C6682,3960,6680,3956,6680,3950z"/>
	<path d="M6746,3878c-3-13-7-67-8-121c-2-72,0-97,10-97c7,0,12,13,12,33c0,17,3,69,6,113c4,54,3,84-5,88
		C6755,3898,6748,3891,6746,3878z"/>
	<path d="M6683,3825c0-22,2-30,4-17c2,12,2,30,0,40C6684,3857,6682,3847,6683,3825z"/>
	<path d="M694,4154c-17-14-17-15-1-10c10,3,23,6,28,6s9,5,9,10C730,4174,717,4172,694,4154z"/>
	<path d="M7651,3724c0-11,3-14,6-6c3,7,2,16-1,19C7653,3741,7650,3735,7651,3724z"/>
	<path d="M3097,3563c-9-15-11-98-3-111c4-7,14-12,23-12c13,0,15,10,11,55C3123,3549,3108,3582,3097,3563z"/>
	<path d="M7431,3029c-35-27-73-50-85-51c-39-3-51-5-69-13c-10-4-23-2-31,4c-11,9-15,9-18-1c-4-11-8-11-20,0c-13,10-17,10-20,1
		c-3-8-9-9-19-4c-25,16-199,18-214,3c-4-4-16-1-26,5c-16,10-21,9-28-2c-5-8-16-11-24-8c-9,3-18-1-22-11s-9-13-13-6
		c-17,26-56,24-215-13c-58-13-72-21-106-60c-22-25-54-48-73-54c-33-10-158-13-213-5c-16,2-32,0-35-5c-3-4-27-2-53,6s-47,12-47,9
		s-14,8-31,25c-22,22-41,32-67,33c-92,5-119,4-152-6c-19-5-43-8-53-7s-25-3-32-9c-8-7-26-9-39-6c-14,3-28,2-31-4c-3-5-19-10-35-10
		s-91-16-167-36c-76-19-149-38-163-40c-14-3-32-7-40-11c-14-6-91-26-150-39c-14-3-32-8-40-11s-26-7-40-9c-14-1-45-6-70-10
		s-79-8-120-8c-41-1-79-4-85-7c-9-6-146-5-152,1c-2,1-6,3-10,5c-5,1-17,6-28,11c-36,16-176,10-235-10c-30-10-71-20-90-22
		c-55-7-127-44-139-72c-14-30,0-50,19-27c7,8,17,15,23,15s18,7,27,15c10,9,39,20,66,25c82,15,109,23,115,31c6,10,163,12,264,4
		c54-5,74-11,88-27c17-20,18-20,36-3c17,15,24,15,56,4c29-11,40-11,57,0c14,9,24,9,31,2c6-6,17-7,26-2s43,14,75,21c33,7,67,16,75,20
		c9,5,43,14,76,20c80,15,77,15,100,26c11,6,35,11,54,13c18,1,42,6,52,12c11,5,19,7,19,3c0-3,6-2,13,4s29,12,48,13c19,2,46,8,60,15
		c15,7,51,16,80,20c75,9,94,12,94,14c0,1,9,3,20,5c11,1,56,10,100,19c44,8,90,17,102,19s26,6,29,10c17,17,56,4,89-28
		c54-55,53-56-60-57c-27,0-61-6-75-13s-56-27-95-45c-38-17-77-35-86-40s-34-12-55-15c-22-4-46-9-54-13c-8-3-40-7-70-8
		c-141-7-302-24-315-34c-10-7-108-41-135-47c-8-2-26-5-40-7s-43-8-65-13c-36-10-75-14-160-17c-18-1-30-6-30-15c0-8,13-15,30-17
		s40-6,53-9s22-1,22,6c0,8,4,8,13,1c12-9,61-1,257,43c41,10,82,18,90,20c36,5,76,17,93,26c10,6,27,7,38,4c10-4,24-3,30,0
		c6,4,32,9,57,10c120,9,229,28,280,51c20,8,64,28,97,44c33,15,73,31,90,34c16,4,33,13,37,19c6,9,10,9,16,1c5-8,25-9,62-4
		c44,6,81,2,185-21c161-36,188-37,183-7c-2,18-10,22-48,24c-58,3-94,9-108,18c-25,15-9,23,46,23c118,0,174,12,220,50
		c24,19,55,37,70,39c63,8,161,30,167,36c4,4,13,4,21,1s21,0,29,7c8,6,23,9,34,5c10-3,22-1,26,4c3,6,16,11,28,11c84,0,228,9,236,14
		c5,4,12,2,15-2c3-5,53-8,112-6c99,3,110,5,156,33c27,17,52,31,56,31c7,0,50,51,66,78c5,8-1,12-21,11C7505,3079,7471,3061,7431,3029
		z"/>
	<path d="M8233,2952c-13-2-23-7-23-12c0-4-10-6-21-3c-16,4-20,2-17-8s25-15,72-17c60-3,67-1,64,14C8305,2945,8268,2958,8233,2952z"
		/>
	<path d="M8100,2943c0-5-28-9-63-11c-85-5-101-7-114-15c-6-4-18-4-27-1c-11,4-16,1-16-10c0-13,12-16,64-16c36,0,68,5,71,10
		c4,7,12,7,24,0c10-5,22-6,26-2c3,4,23,7,42,7c28,0,37,5,44,23c7,20,5,22-21,22C8113,2950,8100,2947,8100,2943z"/>
	<path d="M7692,2892c-13-2-21-9-19-15c4-13,36-11,50,3C7735,2891,7720,2897,7692,2892z"/>
	<path d="M7806,2885c4-8,8-15,10-15s4,7,4,15s-4,15-10,15C7805,2900,7803,2893,7806,2885z"/>
	<path d="M7602,2873c2-10,10-18,18-18s16,8,18,18c2,12-3,17-18,17S7600,2885,7602,2873z"/>
	<path d="M7754,2875c25-19,36-19,36,0c0,10-10,15-27,15C7736,2889,7736,2889,7754,2875z"/>
	<path d="M7270,2865c-7-9-10-18-6-22c9-10,58,16,51,27C7306,2885,7284,2882,7270,2865z"/>
	<path d="M7171,2842c-24-9-46-23-49-31c-7-22,59-3,88,25S7231,2865,7171,2842z"/>
	<path d="M6796,2823c-2-3-10-6-18-7c-34-7-74-20-97-32c-14-8-33-14-41-14s-27-6-42-14c-14-8-46-17-70-21c-78-11-98-16-98-25
		c0-11,58-24,95-21c35,3,171,48,200,66c17,10,82,25,135,31c29,2,31,4,22,21C6873,2822,6808,2834,6796,2823z"/>
	<path d="M6896,2814c-8-20,41-39,60-23c24,20,15,35-20,36C6914,2828,6899,2823,6896,2814z"/>
	<path d="M4660,2540c0-5,6-10,13-10c8,0,22-9,31-19c20-22,56-24,56-3c0,7-16,20-35,28C4685,2552,4660,2554,4660,2540z"/>
	<path d="M7054,2196c-8-21,3-49,16-41c5,3,10,15,10,25C7080,2205,7062,2216,7054,2196z"/>
	<path d="M2795,910c3-5,8-10,11-10c2,0,4,5,4,10c0,6-5,10-11,10C2794,920,2792,916,2795,910z"/>
	<path d="M11320,2290c0-5,5-10,11-10c5,0,7,5,4,10c-3,6-8,10-11,10C11322,2300,11320,2296,11320,2290z"/>
	<path d="M1130,5650c0-5,5-10,10-10c6,0,10,5,10,10c0,6-4,10-10,10C1135,5660,1130,5656,1130,5650z"/>
	<path d="M130,4450c0-5,5-10,10-10c6,0,10,5,10,10c0,6-4,10-10,10C135,4460,130,4456,130,4450z"/>
	<path d="M90,4410c0-5,5-10,11-10c5,0,7,5,4,10c-3,6-8,10-11,10C92,4420,90,4416,90,4410z"/>
	<path d="M90,4340c0-5,5-10,11-10c5,0,7,5,4,10c-3,6-8,10-11,10C92,4350,90,4346,90,4340z"/>
	<path d="M20,3370c0-5,5-10,11-10c5,0,7,5,4,10c-3,6-8,10-11,10C22,3380,20,3376,20,3370z"/>
	<path d="M10,3260c0-5,5-10,11-10c5,0,7,5,4,10c-3,6-8,10-11,10C12,3270,10,3266,10,3260z"/>
	<path d="M30,3195c7-9,15-13,17-11c7,7-7,26-19,26C22,3210,22,3204,30,3195z"/>
	<path d="M12490,2105c0-8,5-15,10-15c6,0,10,7,10,15s-4,15-10,15C12495,2120,12490,2113,12490,2105z"/>
	<path d="M585,1020c3-5,8-10,11-10c2,0,4,5,4,10c0,6-5,10-11,10C584,1030,582,1026,585,1020z"/>
	<path d="M600,880c0-13,18-22,24-11c3,5-1,11-9,15C607,887,600,885,600,880z"/>
	<path d="M629,854c-7-8-6-14,1-19c5-3,10,0,10,7c1,9,5,7,14-4c18-24,24-23,24,5C678,868,647,875,629,854z"/>
	<path d="M717,663c-4-3-7-11-7-17s5-5,12,2c6,6,9,14,7,17C726,668,720,667,717,663z"/>
	<path d="M800,560c0-5,5-10,11-10c5,0,7,5,4,10c-3,6-8,10-11,10C802,570,800,566,800,560z"/>
	<path d="M815,500c3-5,8-10,11-10c2,0,4,5,4,10c0,6-5,10-11,10C814,510,812,506,815,500z"/>
	<path d="M12060,309c0-24,23-21,28,4c2,10-3,17-12,17C12066,330,12060,321,12060,309z"/>
	<path d="M1316,124c-8-22-8-22,14-34c18-10,20-8,20,20C1350,142,1327,152,1316,124z"/>
	<path d="M1360,76c0-17,24-38,33-29c15,15,6,43-13,43C1369,90,1360,84,1360,76z"/>
</g>
</svg>
