<?xml version="1.0" encoding="iso-8859-1"?>
<!-- Generator: Adobe Illustrator 22.0.0, SVG Export Plug-In . SVG Version: 6.00 Build 0)  -->
<svg version="1.1" id="Capa_1" xmlns="http://www.w3.org/2000/svg" xmlns:xlink="http://www.w3.org/1999/xlink" x="0px" y="0px"
	 viewBox="0 0 183.318 45.705" style="enable-background:new 0 0 183.318 45.705;" xml:space="preserve">
<g>
	<g>
		<path style="fill:#5799D9;" d="M61.694,26.078v5.434H42.141V8.762h19.553v5.25H49.966v3.3h9.48v5.049h-9.48v3.717H61.694z"/>
	</g>
</g>
<g>
	<g>
		<path style="fill:#5799D9;" d="M85.348,31.512h-6.492l-7.116-10.051c-0.914-1.289-1.835-2.855-2.763-4.699
			c0.416,1.467,0.628,2.712,0.628,3.734v11.017h-6.475V8.762h7.539l6.055,8.332c1.204,1.656,2.118,3.113,2.739,4.368
			c-0.403-1.944-0.607-3.933-0.607-5.966V8.762h6.492V31.512z"/>
	</g>
</g>
<g>
	<path style="fill:#DA0100;" d="M86.986,31.512V8.762h10.053c4.366,0,7.634,1.133,9.804,3.399c2.17,2.267,3.254,4.89,3.254,7.866
		c0,3.401-1.163,6.164-3.493,8.293c-2.326,2.127-5.352,3.191-9.071,3.191H86.986z M94.965,26.279h2.074
		c1.32,0,2.436-0.561,3.343-1.683c0.907-1.122,1.358-2.651,1.358-4.583c0-1.656-0.403-3.084-1.208-4.285
		c-0.805-1.199-1.972-1.799-3.493-1.799h-2.074V26.279z"/>
</g>
<g>
	<path style="fill:#DA0100;" d="M131.52,26.078v5.434h-19.553V8.762h19.553v5.25h-11.728v3.3h9.48v5.049h-9.48v3.717H131.52z"/>
</g>
<g>
	<path style="fill:#518E45;" d="M147.873,22.829l7.29,0.384c-0.345,2.789-1.518,4.928-3.531,6.417s-4.482,2.233-7.416,2.233
		c-3.527,0-6.379-1.022-8.549-3.067c-2.17-2.043-3.254-4.866-3.254-8.467c0-3.566,1.027-6.444,3.084-8.632
		c2.054-2.19,4.926-3.283,8.603-3.283c3.439,0,6.086,0.832,7.931,2.499c1.845,1.668,2.889,3.879,3.132,6.633l-7.443,0.351
		c0-1.523-0.334-2.623-0.999-3.3c-0.669-0.677-1.453-1.017-2.354-1.017c-2.511,0-3.766,2.211-3.766,6.633
		c0,2.478,0.327,4.162,0.979,5.05s1.573,1.332,2.753,1.332C146.437,26.595,147.617,25.339,147.873,22.829z"/>
</g>
<g>
	<path style="fill:#518E45;" d="M167.311,31.862c-3.657,0-6.635-1.061-8.938-3.183c-2.306-2.122-3.459-4.962-3.459-8.516
		c0-3.401,1.105-6.209,3.306-8.426c2.2-2.217,5.257-3.324,9.166-3.324c3.616,0,6.567,1.044,8.842,3.133
		c2.279,2.088,3.418,4.878,3.418,8.366c0,3.611-1.146,6.505-3.445,8.683C173.905,30.774,170.94,31.862,167.311,31.862z
		 M167.273,26.695c1.344,0,2.313-0.513,2.903-1.542c0.59-1.027,0.887-2.908,0.887-5.642c0-3.955-1.214-5.932-3.636-5.932
		c-2.616,0-3.923,2.255-3.923,6.766C163.504,24.579,164.759,26.695,167.273,26.695z"/>
</g>
<polyline style="fill:#4A72B0;" points="22.888,37.637 22.888,35.117 11.483,28.649 8.381,29.257 "/>
<path style="fill:#A60B0A;" d="M35.247,9.241l-8.17-4.717c-2.689-1.516-7.201-1.378-9.852,0.161L5.927,12.178L22.29,22.706
	l13.1-7.573C38.096,13.562,37.993,10.789,35.247,9.241z M27.883,15.146l-5.866,3.406l-10.119-5.875l6.104-3.454
	c4.321-2.808,5.266-2.687,8.864-0.298l1.017,0.59C30.562,11.07,30.562,13.591,27.883,15.146z"/>
<path style="fill:#396535;" d="M37.961,28.933l-1.522-0.853c-0.523-0.293-1.16-0.292-1.682,0.001l-10.992,6.171
	c-0.542,0.304-0.878,0.878-0.878,1.499v2.53"/>
<polyline style="fill:#4A72B0;" points="8.381,20.884 11.483,20.453 22.888,26.741 22.888,29.264 "/>
<polyline style="fill:#4A72B0;" points="7.928,12.47 11.483,10.415 11.483,31.348 7.928,33.103 "/>
<polyline style="fill:#518E45;" points="37.961,14.588 37.96,12.336 37.959,10.529 36.05,11.267 35.987,13.319 "/>
<path style="fill:#DA0100;" d="M35.844,7.426l-8.17-4.717c-2.689-1.516-7.201-1.378-9.852,0.161L4.754,10.415l18.134,10.476
	l13.1-7.573C38.693,11.748,38.59,8.974,35.844,7.426z M28.481,13.331l-5.866,3.406l-10.716-6.222l5.867-3.406
	c4.321-2.808,6.1-2.389,9.699,0l1.017,0.59C31.159,9.255,31.159,11.776,28.481,13.331z"/>
<polygon style="fill:#396535;" points="19.832,19.216 19.832,39.914 24.144,37.637 23.459,21.301 "/>
<polygon style="fill:#5799D9;" points="22.888,25.078 22.888,20.892 4.754,10.415 4.754,31.348 22.888,41.824 22.888,37.637 
	8.381,29.257 8.381,25.07 19.832,31.686 22.888,33.451 22.888,29.264 19.832,27.499 8.381,20.884 8.381,16.697 "/>
<polyline style="fill:#396535;" points="19.83,27.106 19.83,31.754 22.885,33.714 22.885,29.066 "/>
<path style="fill:#518E45;" d="M37.961,14.868v-2.69l-15.074,8.714v20.932l15.074-8.703l0-4.189l-11.447,6.611V22.976l10.15-5.862
	C37.467,16.651,37.961,15.794,37.961,14.868z"/>
</svg>
